#N canvas 7 18 1244 701 10;
#X declare -path rj;
#X declare -path rj;
#X text 423 6 master volume;
#X obj 1191 9 2_live;
#X text 26 7 GarageAcidLab (c) Chris McCormick \, 2010 onward!;
#X text 26 71 These patches are GPLv3 unless otherwise noted.;
#X text 22 192 volume;
#X text 21 235 cutoff;
#X text 254 438 fx send (acid/drums);
#X text 20 280 resonance;
#X text 20 326 octave;
#X text 20 373 speeed;
#X obj 256 212 midiknob 3;
#X text 257 194 volume;
#X text 261 300 beat shifter;
#X text 258 387 stickyrhythms;
#X text 26 34 version1 - get the latest version from: http://mccormick.cx/projects/GarageAcidLab/
;
#X text 93 172 acid;
#X text 329 172 beat;
#X text 26 474 volume;
#X text 113 455 fx;
#X text 25 522 fx type;
#X text 27 567 fx value 1;
#X text 29 609 fx value 2;
#X text 722 192 volume;
#X text 721 235 cutoff;
#X text 954 438 fx send (acid/drums);
#X text 720 280 resonance;
#X text 720 326 octave;
#X text 720 373 speeed;
#X text 957 194 volume;
#X text 961 300 beat shifter;
#X text 958 387 stickyrhythms;
#X text 793 172 acid;
#X text 1029 172 beat;
#X text 726 474 volume;
#X text 813 455 fx;
#X text 725 522 fx type;
#X text 727 567 fx value 1;
#X text 729 609 fx value 2;
#X text 296 364 vegetarian meatballs;
#X text 996 364 vegetarian meatballs;
#X text 30 100 refresh;
#X text 121 100 melody;
#X obj 206 119 midibutton 43;
#X text 214 101 beat;
#X text 731 97 <- copy sequence;
#X text 842 97 permute melody;
#X text 942 98 beat;
#X obj 298 119 miditoggle 48;
#X text 311 101 swing;
#X text 1041 97 swing;
#X text 469 74 hint: turn sliders to full open to loop them;
#X obj 20 209 midiknob 1 acid_volume;
#X obj 423 25 midiknob 33;
#X obj 20 252 midiknob 17 acid_cutoff;
#X obj 256 457 midiknob 9;
#X obj 20 297 midiknob 25;
#X obj 20 344 midiknob 10;
#X obj 20 391 midiknob 18;
#X obj 256 242 midiknob 11;
#X obj 256 272 midiknob 19;
#X obj 256 317 midiknob 27;
#X obj 256 408 midiknob 2;
#X obj 20 492 midiknob 4;
#X obj 20 540 midiknob 12;
#X obj 20 626 midiknob 28;
#X obj 20 583 midiknob 20;
#X obj 720 209 midiknob 5 acid_volume;
#X obj 720 252 midiknob 21 acid_cutoff;
#X obj 956 457 midiknob 13;
#X obj 720 297 midiknob 29;
#X obj 720 344 midiknob 14;
#X obj 720 391 midiknob 22;
#X obj 956 212 midiknob 7;
#X obj 956 242 midiknob 15;
#X obj 956 272 midiknob 23;
#X obj 956 317 midiknob 31;
#X obj 956 408 midiknob 6;
#X obj 720 492 midiknob 8;
#X obj 720 540 midiknob 16;
#X obj 720 626 midiknob 32;
#X obj 720 583 midiknob 24;
#X obj 26 119 midibutton 41;
#X obj 116 119 midibutton 42;
#X obj 742 116 midibutton 44;
#X obj 838 116 midibutton 45;
#X obj 932 116 midibutton 46;
#X obj 1028 116 miditoggle 49;
