#N canvas 2 62 994 680 10;
#X declare -path ./s-abstractions/trunk/;
#X declare -path ./rj/;
#X declare -path ./s-abstractions/trunk/;
#X declare -path rj;
#X declare -path .;
#X declare -path ./rj/;
#X declare -path ./s-abstractions/trunk/;
#X declare -path rj;
#X declare -path .;
#X text 26 7 GarageAcidLab (c) Chris McCormick \, 2010 onward!;
#X text 26 81 These patches are GPLv unless otherwise noted.;
#X text 22 192 volume;
#X text 21 235 cutoff;
#X text 18 568 fx send (acid/drums);
#X text 20 280 resonance;
#X text 20 326 octave;
#X text 20 373 speeed;
#X text 257 194 volume;
#X text 261 300 beat shifter;
#X text 22 517 stickyrhythms;
#X text 93 172 acid;
#X text 329 172 beat;
#X text 262 494 volume;
#X text 349 475 fx;
#X text 261 542 fx type;
#X text 263 587 fx value 1;
#X text 265 629 fx value 2;
#X text 542 192 volume;
#X text 541 235 cutoff;
#X text 538 568 fx send (acid/drums);
#X text 540 280 resonance;
#X text 540 326 octave;
#X text 540 373 speeed;
#X text 777 194 volume;
#X text 781 300 beat shifter;
#X text 542 517 stickyrhythms;
#X text 613 172 acid;
#X text 849 172 beat;
#X text 782 494 volume;
#X text 869 475 fx;
#X text 781 542 fx type;
#X text 783 587 fx value 1;
#X text 785 629 fx value 2;
#X text 60 494 vegetarian meatballs;
#X text 580 494 vegetarian meatballs;
#X text 30 120 refresh;
#X text 121 120 melody;
#X text 214 121 beat;
#X text 551 117 <- copy sequence;
#X text 662 117 permute melody;
#X text 762 118 beat;
#X obj 298 139 miditoggle 48;
#X text 311 121 swing;
#X text 861 117 swing;
#X text 343 92 hint: turn sliders to full open to loop them;
#X obj 26 139 midibutton 41;
#N canvas 98 56 450 300 megaseed 0;
#X obj 8 62 realtime;
#X obj 8 83 t b a;
#X msg 35 102 seed \$1;
#X obj 8 130 random 10000;
#X obj 8 201 until;
#X obj 35 244 s button/41;
#X obj 8 222 t b b;
#X obj 8 268 s button/44;
#X obj 5 5 bng 15 250 50 0 \$0/seeder empty random_seed 17 7 0 10 -258113
-1 -1;
#X obj 53 37 r \$0/seeder;
#X obj 18 177 r MAINSEED;
#X obj 18 157 s SEEDED;
#X connect 0 0 1 0;
#X connect 1 0 3 0;
#X connect 1 1 2 0;
#X connect 2 0 3 0;
#X connect 3 0 4 0;
#X connect 3 0 11 0;
#X connect 4 0 6 0;
#X connect 6 0 7 0;
#X connect 6 1 5 0;
#X connect 9 0 0 1;
#X connect 10 0 4 0;
#X coords 0 -1 1 1 93 25 2 0 0;
#X restore 648 24 pd megaseed;
#X text 617 4 seed entire system randomly;
#N canvas 342 206 450 300 init 0;
#X obj 11 9 loadbang;
#X msg 11 30 \; master/volume 80 \;;
#X connect 0 0 1 0;
#X restore 476 632 pd init;
#X obj 840 6 s-midimonitor;
#X text 26 21 chris@mccormick.cx;
#N canvas 463 109 450 300 midisave 0;
#X obj 6 7 bng 15 250 50 0 \$0/midisave empty save_midi_settings 17
7 0 10 -258113 -1 -1;
#X obj 93 238 textfile;
#X obj 93 177 list prepend add;
#X obj 93 198 list trim;
#X obj 265 111 t b b b;
#X msg 304 133 clear;
#X msg 265 179 write GAL-midisettings.txt;
#X obj 27 63 loadbang;
#X obj 27 112 t b b;
#X obj 27 171 until;
#X msg 27 92 bang;
#X msg 54 133 read GAL-midisettings.txt \, rewind;
#X obj 265 90 r \$0/midisave;
#X obj 284 156 s GAL_MIDISAVE;
#X obj 93 156 r GAL_MIDIDATA;
#X obj 93 259 s GAL_MIDILOAD;
#X obj 6 27 bng 15 250 50 0 \$0/midiload empty load_midi_settings 17
7 0 10 -258113 -1 -1;
#X obj 83 63 r \$0/midiload;
#X connect 1 0 15 0;
#X connect 1 1 9 1;
#X connect 2 0 3 0;
#X connect 3 0 1 0;
#X connect 4 0 6 0;
#X connect 4 1 13 0;
#X connect 4 2 5 0;
#X connect 5 0 1 0;
#X connect 6 0 1 0;
#X connect 7 0 10 0;
#X connect 8 0 9 0;
#X connect 8 1 11 0;
#X connect 9 0 1 0;
#X connect 10 0 8 0;
#X connect 11 0 1 0;
#X connect 12 0 4 0;
#X connect 14 0 2 0;
#X connect 17 0 10 0;
#X coords 0 -1 1 1 135 50 2 0 0;
#X restore 648 55 pd midisave;
#X obj 20 297 midiknob 25;
#X obj 206 139 midibutton 43;
#X obj 116 139 midibutton 42;
#X obj 562 136 midibutton 44;
#X obj 658 136 midibutton 45;
#X obj 752 136 midibutton 46;
#X text 26 44 v48 - get the latest version from: http://mccormick.cx/projects/GarageAcidLab/
;
#X text 20 420 key mutate;
#X text 540 420 key mutate;
#X obj 359 10 declare -path ./s-abstractions/trunk/;
#X obj 533 54 nbx 10 14 -1e+37 1e+37 0 0 MAINSEED SEEDED seed 0 -8
0 10 -262144 -1 -1 332 256;
#X obj 20 209 midiknob 1 acid_volume;
#X obj 256 212 midiknob 3;
#X obj 20 252 midiknob 17 acid_cutoff;
#X obj 20 587 midiknob 9;
#X obj 20 344 midiknob 10;
#X obj 20 391 midiknob 18;
#X obj 256 242 midiknob 11;
#X obj 256 272 midiknob 19;
#X obj 256 317 midiknob 27;
#X obj 20 538 midiknob 2;
#X obj 256 512 midiknob 4;
#X obj 256 560 midiknob 12;
#X obj 256 646 midiknob 28;
#X obj 256 603 midiknob 20;
#X obj 540 209 midiknob 5 acid_volume;
#X obj 540 252 midiknob 21 acid_cutoff;
#X obj 540 587 midiknob 13;
#X obj 540 297 midiknob 29;
#X obj 540 344 midiknob 14;
#X obj 540 391 midiknob 22;
#X obj 776 212 midiknob 7;
#X obj 776 242 midiknob 15;
#X obj 776 272 midiknob 23;
#X obj 776 317 midiknob 31;
#X obj 540 538 midiknob 6;
#X obj 776 512 midiknob 8;
#X obj 776 560 midiknob 16;
#X obj 776 646 midiknob 32;
#X obj 776 603 midiknob 24;
#X obj 20 438 midiknob 26;
#X obj 540 438 midiknob 30;
#N canvas 666 55 643 664 netbus 0;
#X obj 259 610 netbus;
#X obj 10 7 nbreceive rez_1 MIDIKNOB/25;
#X obj 10 35 nbreceive fx_send_1/idx fx_send_1/r;
#X obj 10 57 * 63;
#X obj 10 79 s MIDIKNOB/9;
#X obj 11 104 nbreceive fx_select_1/idx fx_select_1/r;
#X obj 11 126 * 16;
#X obj 11 148 s MIDIKNOB/12;
#X obj 11 239 s-lookup;
#X obj 56 197 loadbang;
#X obj 11 331 s MIDIKNOB/26;
#X obj 11 175 nbreceive key_mutate_1/idx key_mutate_1/r;
#X msg 56 218 0 90 102 39 62;
#X obj 10 402 * 16;
#X obj 10 541 s MIDIKNOB/27;
#X obj 50 488 sel 0 1;
#X obj 10 518 f;
#X msg 69 510 127;
#X obj 50 402 nbreceive shift_1/loop shift_1/loop/r;
#X obj 10 380 nbreceive shift_1/idx shift_1/r;
#X obj 31 283 sel 0 1;
#X msg 50 305 127;
#X obj 31 261 nbreceive key_1/loop key_1/loop/r;
#X obj 11 311 f;
#X obj 77 466 s MIDIKNOB/2;
#X obj 50 424 t f f;
#X obj 77 444 * 127;
#X obj 360 57 * 63;
#X obj 361 126 * 16;
#X obj 361 239 s-lookup;
#X obj 406 197 loadbang;
#X msg 406 218 0 90 102 39 62;
#X obj 360 402 * 16;
#X obj 400 488 sel 0 1;
#X obj 360 518 f;
#X msg 419 510 127;
#X obj 381 283 sel 0 1;
#X msg 400 305 127;
#X obj 361 311 f;
#X obj 400 424 t f f;
#X obj 427 444 * 127;
#X obj 360 7 nbreceive rez_2 MIDIKNOB/29;
#X obj 360 35 nbreceive fx_send_2/idx fx_send_2/r;
#X obj 360 79 s MIDIKNOB/13;
#X obj 361 148 s MIDIKNOB/16;
#X obj 361 104 nbreceive fx_select_2/idx fx_select_2/r;
#X obj 361 175 nbreceive key_mutate_2/idx key_mutate_2/r;
#X obj 381 261 nbreceive key_2/loop key_2/loop/r;
#X obj 361 331 s MIDIKNOB/30;
#X obj 360 380 nbreceive shift_2/idx shift_2/r;
#X obj 400 402 nbreceive shift_2/loop shift_2/loop/r;
#X obj 427 466 s MIDIKNOB/6;
#X obj 360 541 s MIDIKNOB/31;
#X obj 142 559 nbsend main/state main/state-set;
#X connect 2 0 3 0;
#X connect 3 0 4 0;
#X connect 5 0 6 0;
#X connect 6 0 7 0;
#X connect 8 0 23 0;
#X connect 9 0 12 0;
#X connect 11 0 8 0;
#X connect 12 0 8 1;
#X connect 13 0 16 0;
#X connect 15 0 16 0;
#X connect 15 1 17 0;
#X connect 16 0 14 0;
#X connect 17 0 14 0;
#X connect 18 0 25 0;
#X connect 19 0 13 0;
#X connect 20 0 23 0;
#X connect 20 1 21 0;
#X connect 21 0 10 0;
#X connect 22 0 20 0;
#X connect 23 0 10 0;
#X connect 25 0 15 0;
#X connect 25 1 26 0;
#X connect 26 0 24 0;
#X connect 27 0 43 0;
#X connect 28 0 44 0;
#X connect 29 0 38 0;
#X connect 30 0 31 0;
#X connect 31 0 29 1;
#X connect 32 0 34 0;
#X connect 33 0 34 0;
#X connect 33 1 35 0;
#X connect 34 0 52 0;
#X connect 35 0 52 0;
#X connect 36 0 38 0;
#X connect 36 1 37 0;
#X connect 37 0 48 0;
#X connect 38 0 48 0;
#X connect 39 0 33 0;
#X connect 39 1 40 0;
#X connect 40 0 51 0;
#X connect 42 0 27 0;
#X connect 45 0 28 0;
#X connect 46 0 29 0;
#X connect 47 0 36 0;
#X connect 49 0 32 0;
#X connect 50 0 39 0;
#X restore 544 654 pd netbus;
#N canvas 512 349 769 300 MIDIHACK 0;
#X obj 15 6 ctlin 35;
#X msg 131 258 \; MIDIKNOB/26 \$1;
#X obj 131 169 ctlin 33;
#X obj 15 28 sel 127;
#X obj 15 50 tgl 15 0 empty empty empty 17 7 0 10 -262144 -1 -1 0 1
;
#X obj 15 70 * 100;
#X msg 15 94 \; MIDIKNOB/11 \$1;
#X obj 17 190 sel 127;
#X obj 17 212 tgl 15 0 empty empty empty 17 7 0 10 -262144 -1 -1 0
1;
#X obj 17 232 * 100;
#X obj 17 168 ctlin 51;
#X msg 17 256 \; MIDIKNOB/19 \$1;
#X obj 635 34 sel 127;
#X obj 635 56 tgl 15 0 empty empty empty 17 7 0 10 -262144 -1 -1 0
1;
#X obj 635 76 * 100;
#X obj 637 196 sel 127;
#X obj 637 218 tgl 15 0 empty empty empty 17 7 0 10 -262144 -1 -1 0
1;
#X obj 637 238 * 100;
#X msg 635 100 \; MIDIKNOB/15 \$1;
#X msg 637 262 \; MIDIKNOB/23 \$1;
#X obj 635 12 ctlin 39;
#X obj 637 174 ctlin 55;
#X obj 131 191 sel 127;
#X obj 131 213 tgl 15 0 empty empty empty 17 7 0 10 -262144 -1 -1 0
1;
#X obj 131 233 * 100;
#X obj 529 197 sel 127;
#X obj 529 219 tgl 15 0 empty empty empty 17 7 0 10 -262144 -1 -1 0
1;
#X obj 529 175 ctlin 37;
#X msg 529 264 \; MIDIKNOB/30 \$1;
#X obj 529 239 * 52;
#N canvas 2 50 450 332 sticky 0;
#X obj 17 16 ctlin 34;
#X obj 75 17 ctlin 50;
#X obj 131 18 ctlin 66;
#X obj 129 96 * 4;
#X obj 71 93 * 2;
#X obj 75 59 / 127;
#X obj 131 60 / 127;
#X obj 17 58 / 127;
#X obj 59 159 +;
#X obj 123 163 +;
#X obj 128 125 t b b f;
#X obj 104 215 +;
#X obj 123 185 t b f;
#X obj 72 113 t b f;
#X floatatom 104 237 5 0 0 0 - - -, f 5;
#X obj 104 278 * 127;
#X obj 104 300 s MIDIKNOB/2;
#X obj 104 256 / 8;
#X obj 353 99 * 4;
#X obj 295 96 * 2;
#X obj 299 62 / 127;
#X obj 355 63 / 127;
#X obj 241 61 / 127;
#X obj 283 162 +;
#X obj 347 166 +;
#X obj 352 128 t b b f;
#X obj 328 218 +;
#X obj 347 188 t b f;
#X obj 296 116 t b f;
#X floatatom 328 240 5 0 0 0 - - -, f 5;
#X obj 328 281 * 127;
#X obj 328 259 / 8;
#X obj 329 303 s MIDIKNOB/6;
#X obj 242 18 ctlin 38;
#X obj 299 20 ctlin 54;
#X obj 355 21 ctlin 70;
#X obj 255 40 ctlout 38;
#X obj 317 42 ctlout 54;
#X obj 379 42 ctlout 70;
#X obj 157 38 ctlout 66;
#X obj 94 39 ctlout 50;
#X obj 32 37 ctlout 34;
#X connect 0 0 7 0;
#X connect 0 0 41 0;
#X connect 1 0 5 0;
#X connect 1 0 40 0;
#X connect 2 0 6 0;
#X connect 2 0 39 0;
#X connect 3 0 10 0;
#X connect 4 0 13 0;
#X connect 5 0 4 0;
#X connect 6 0 3 0;
#X connect 7 0 8 0;
#X connect 8 0 11 0;
#X connect 9 0 12 0;
#X connect 10 0 8 0;
#X connect 10 1 9 0;
#X connect 10 2 9 1;
#X connect 11 0 14 0;
#X connect 12 0 11 0;
#X connect 12 1 11 1;
#X connect 13 0 8 0;
#X connect 13 1 8 1;
#X connect 14 0 17 0;
#X connect 15 0 16 0;
#X connect 17 0 15 0;
#X connect 18 0 25 0;
#X connect 19 0 28 0;
#X connect 20 0 19 0;
#X connect 21 0 18 0;
#X connect 22 0 23 0;
#X connect 23 0 26 0;
#X connect 24 0 27 0;
#X connect 25 0 23 0;
#X connect 25 1 24 0;
#X connect 25 2 24 1;
#X connect 26 0 29 0;
#X connect 27 0 26 0;
#X connect 27 1 26 1;
#X connect 28 0 23 0;
#X connect 28 1 23 1;
#X connect 29 0 31 0;
#X connect 30 0 32 0;
#X connect 31 0 30 0;
#X connect 33 0 22 0;
#X connect 33 0 36 0;
#X connect 34 0 20 0;
#X connect 34 0 37 0;
#X connect 35 0 21 0;
#X connect 35 0 38 0;
#X restore 117 8 pd sticky;
#X obj 672 75 ctlout 39 1;
#X obj 672 54 * 127;
#X obj 675 218 * 127;
#X obj 675 239 ctlout 55 1;
#X obj 54 210 * 127;
#X obj 54 231 ctlout 51 1;
#X obj 53 50 * 127;
#X obj 53 71 ctlout 35 1;
#X obj 169 212 * 127;
#X obj 169 233 ctlout 33 1;
#X obj 562 217 * 127;
#X obj 562 238 ctlout 37 1;
#N canvas 865 136 450 300 backforward 0;
#X obj 15 13 ctlin 58;
#X obj 308 14 ctlin 59;
#X obj 308 36 sel 127;
#X obj 15 35 sel 127;
#X obj 15 57 t b b;
#X obj 308 58 t b b;
#X obj 335 80 s main/forward;
#X obj 308 102 s main/load;
#X obj 42 79 s main/backward;
#X obj 15 101 s main/load;
#X connect 0 0 3 0;
#X connect 1 0 2 0;
#X connect 2 0 5 0;
#X connect 3 0 4 0;
#X connect 4 0 9 0;
#X connect 4 1 8 0;
#X connect 5 0 7 0;
#X connect 5 1 6 0;
#X restore 238 8 pd backforward;
#X obj 153 41 ctlin 65;
#X obj 153 63 sel 127;
#X obj 153 85 tgl 15 0 empty empty empty 17 7 0 10 -262144 -1 -1 0
1;
#X obj 153 104 * 127;
#X obj 153 126 ctlout 65;
#X msg 218 116 \; MIDIBUTTON/48 \$1 \;;
#X obj 423 63 sel 127;
#X obj 423 85 tgl 15 0 empty empty empty 17 7 0 10 -262144 -1 -1 0
1;
#X obj 423 104 * 127;
#X msg 488 116 \; MIDIBUTTON/49 \$1 \;;
#X obj 423 41 ctlin 69;
#X obj 423 126 ctlout 69;
#X connect 0 0 3 0;
#X connect 2 0 22 0;
#X connect 3 0 4 0;
#X connect 4 0 5 0;
#X connect 4 0 37 0;
#X connect 5 0 6 0;
#X connect 7 0 8 0;
#X connect 8 0 9 0;
#X connect 8 0 35 0;
#X connect 9 0 11 0;
#X connect 10 0 7 0;
#X connect 12 0 13 0;
#X connect 13 0 14 0;
#X connect 13 0 32 0;
#X connect 14 0 18 0;
#X connect 15 0 16 0;
#X connect 16 0 17 0;
#X connect 16 0 33 0;
#X connect 17 0 19 0;
#X connect 20 0 12 0;
#X connect 21 0 15 0;
#X connect 22 0 23 0;
#X connect 23 0 24 0;
#X connect 23 0 39 0;
#X connect 24 0 1 0;
#X connect 25 0 26 0;
#X connect 26 0 29 0;
#X connect 26 0 41 0;
#X connect 27 0 25 0;
#X connect 29 0 28 0;
#X connect 32 0 31 0;
#X connect 33 0 34 0;
#X connect 35 0 36 0;
#X connect 37 0 38 0;
#X connect 39 0 40 0;
#X connect 41 0 42 0;
#X connect 44 0 45 0;
#X connect 45 0 46 0;
#X connect 46 0 47 0;
#X connect 47 0 48 0;
#X connect 47 0 49 0;
#X connect 50 0 51 0;
#X connect 51 0 52 0;
#X connect 52 0 53 0;
#X connect 52 0 55 0;
#X connect 54 0 50 0;
#X restore 637 649 pd MIDIHACK;
#X obj 470 653 2_live main;
#X obj 848 136 miditoggle 49;
#X obj 448 136 nbx 2 32 -1e+37 1e+37 0 0 empty main/state empty 0 -8
0 24 -262144 -1 -1 6 256;
