#N canvas 6 62 982 680 10;
#X declare -path rj;
#X declare -path .;
#X declare -path rj;
#X declare -path .;
#X declare -path ./s-abstractions/trunk/;
#X obj 480 653 2_live;
#X text 26 7 GarageAcidLab (c) Chris McCormick \, 2010 onward!;
#X text 26 81 These patches are GPLv unless otherwise noted.;
#X text 22 192 volume;
#X text 21 235 cutoff;
#X text 18 568 fx send (acid/drums);
#X text 20 280 resonance;
#X text 20 326 octave;
#X text 20 373 speeed;
#X text 257 194 volume;
#X text 261 300 beat shifter;
#X text 22 517 stickyrhythms;
#X text 93 172 acid;
#X text 329 172 beat;
#X text 262 494 volume;
#X text 349 475 fx;
#X text 261 542 fx type;
#X text 263 587 fx value 1;
#X text 265 629 fx value 2;
#X text 542 192 volume;
#X text 541 235 cutoff;
#X text 538 568 fx send (acid/drums);
#X text 540 280 resonance;
#X text 540 326 octave;
#X text 540 373 speeed;
#X text 777 194 volume;
#X text 781 300 beat shifter;
#X text 542 517 stickyrhythms;
#X text 613 172 acid;
#X text 849 172 beat;
#X text 782 494 volume;
#X text 869 475 fx;
#X text 781 542 fx type;
#X text 783 587 fx value 1;
#X text 785 629 fx value 2;
#X text 60 494 vegetarian meatballs;
#X text 580 494 vegetarian meatballs;
#X text 30 120 refresh;
#X text 121 120 melody;
#X text 214 121 beat;
#X text 551 117 <- copy sequence;
#X text 662 117 permute melody;
#X text 762 118 beat;
#X obj 298 139 miditoggle 48;
#X text 311 121 swing;
#X text 861 117 swing;
#X text 343 92 hint: turn sliders to full open to loop them;
#X obj 26 139 midibutton 41;
#N canvas 101 71 450 300 megaseed 0;
#X obj 8 62 realtime;
#X obj 8 83 t b a;
#X msg 35 102 seed \$1;
#X obj 8 130 random 10000;
#X obj 8 151 until;
#X obj 35 194 s button/41;
#X obj 8 172 t b b;
#X obj 8 218 s button/44;
#X obj 5 5 bng 15 250 50 0 \$0/seeder empty random_seed 17 7 0 10 -258113
-1 -1;
#X obj 8 39 r \$0/seeder;
#X connect 0 0 1 0;
#X connect 1 0 3 0;
#X connect 1 1 2 0;
#X connect 2 0 3 0;
#X connect 3 0 4 0;
#X connect 4 0 6 0;
#X connect 6 0 7 0;
#X connect 6 1 5 0;
#X connect 9 0 0 0;
#X coords 0 -1 1 1 93 25 2 0 0;
#X restore 648 24 pd megaseed;
#X text 617 4 seed entire system randomly;
#X obj 20 209 midiknob 1 acid_volume;
#N canvas 344 216 450 300 init 0;
#X obj 11 9 loadbang;
#X msg 11 30 \; master/volume 80 \;;
#X connect 0 0 1 0;
#X restore 476 632 pd init;
#X obj 840 6 s-midimonitor;
#X text 26 21 chris@mccormick.cx;
#N canvas 463 109 450 300 midisave 0;
#X obj 6 7 bng 15 250 50 0 \$0/midisave empty save_midi_settings 17
7 0 10 -258113 -1 -1;
#X obj 93 238 textfile;
#X obj 93 177 list prepend add;
#X obj 93 198 list trim;
#X obj 265 111 t b b b;
#X msg 304 133 clear;
#X msg 265 179 write GAL-midisettings.txt;
#X obj 27 63 loadbang;
#X obj 27 112 t b b;
#X obj 27 171 until;
#X msg 27 92 bang;
#X msg 54 133 read GAL-midisettings.txt \, rewind;
#X obj 265 90 r \$0/midisave;
#X obj 284 156 s GAL_MIDISAVE;
#X obj 93 156 r GAL_MIDIDATA;
#X obj 93 259 s GAL_MIDILOAD;
#X obj 6 27 bng 15 250 50 0 \$0/midiload empty load_midi_settings 17
7 0 10 -258113 -1 -1;
#X obj 83 63 r \$0/midiload;
#X connect 1 0 15 0;
#X connect 1 1 9 1;
#X connect 2 0 3 0;
#X connect 3 0 1 0;
#X connect 4 0 6 0;
#X connect 4 1 13 0;
#X connect 4 2 5 0;
#X connect 5 0 1 0;
#X connect 6 0 1 0;
#X connect 7 0 10 0;
#X connect 8 0 9 0;
#X connect 8 1 11 0;
#X connect 9 0 1 0;
#X connect 10 0 8 0;
#X connect 11 0 1 0;
#X connect 12 0 4 0;
#X connect 14 0 2 0;
#X connect 17 0 10 0;
#X coords 0 -1 1 1 135 50 2 0 0;
#X restore 648 55 pd midisave;
#X obj 256 212 midiknob 3;
#X obj 20 252 midiknob 17 acid_cutoff;
#X obj 20 587 midiknob 9;
#X obj 20 297 midiknob 25;
#X obj 20 344 midiknob 10;
#X obj 20 391 midiknob 18;
#X obj 256 242 midiknob 11;
#X obj 256 272 midiknob 19;
#X obj 256 317 midiknob 27;
#X obj 20 538 midiknob 2;
#X obj 256 512 midiknob 4;
#X obj 256 560 midiknob 12;
#X obj 256 646 midiknob 28;
#X obj 256 603 midiknob 20;
#X obj 540 209 midiknob 5 acid_volume;
#X obj 540 252 midiknob 21 acid_cutoff;
#X obj 540 587 midiknob 13;
#X obj 540 297 midiknob 29;
#X obj 540 344 midiknob 14;
#X obj 540 391 midiknob 22;
#X obj 776 212 midiknob 7;
#X obj 776 242 midiknob 15;
#X obj 776 272 midiknob 23;
#X obj 776 317 midiknob 31;
#X obj 540 538 midiknob 6;
#X obj 776 512 midiknob 8;
#X obj 776 560 midiknob 16;
#X obj 776 646 midiknob 32;
#X obj 776 603 midiknob 24;
#X obj 206 139 midibutton 43;
#X obj 116 139 midibutton 42;
#X obj 562 136 midibutton 44;
#X obj 658 136 midibutton 45;
#X obj 752 136 midibutton 46;
#X obj 848 136 miditoggle 49;
#X text 26 44 v48 - get the latest version from: http://mccormick.cx/projects/GarageAcidLab/
;
#X obj 20 438 midiknob 26;
#X text 20 420 key mutate;
#X text 540 420 key mutate;
#X obj 540 438 midiknob 30;
#X obj 359 10 declare -path ./s-abstractions/trunk/;
