#N canvas 47 48 1138 676 10;
#X declare -path ./rj/;
#X declare -path ./s-abstractions/trunk/;
#X declare -path rj;
#X declare -path .;
#X declare -path ./rj/;
#X declare -path ./s-abstractions/trunk/;
#X declare -path rj;
#X declare -path .;
#X obj 779 641 dac~;
#X obj 745 523 s-ezdac~ master;
#X obj 941 164 f;
#X obj 973 164 + 1;
#X obj 941 144 metro 124;
#X obj 964 109 t b f;
#X obj 964 90 r \$1/settime;
#X obj 941 217 s time/tick;
#X obj 941 90 tgl 15 0 empty empty empty 17 7 0 10 -262144 -1 -1 1
1;
#X obj 942 248 r time/tick;
#X obj 942 272 s acid1/tick;
#X obj 941 7 loadbang;
#X msg 33 81 \; acid1/makenew bang \;;
#X msg 378 80 \; acid1/picksamples bang \; acid1/pickbeat bang \;;
#X obj 1040 251 r time/tick;
#X obj 1040 272 s acid2/tick;
#X msg 380 192 \; acid2/picksamples bang \; acid2/pickbeat bang \;
;
#X obj 616 9 s-midimonitor;
#X obj 184 310 > 0;
#X obj 184 331 * 30;
#X msg 184 352 \; acid1/swing \$1 \;;
#X obj 381 298 > 0;
#X obj 381 319 * 30;
#X msg 381 340 \; acid2/swing \$1 \;;
#X obj 683 645 writesf~ 2;
#X msg 570 547 start;
#X msg 572 573 stop;
#X obj 618 349 r acid1/notestream;
#X obj 791 351 r acid2/notestream;
#X obj 618 372 print a1;
#X obj 791 372 print a2;
#X msg 690 409 \; acid2/makenew bang \;;
#X obj 941 28 t b b;
#X msg 973 53 \; pd dsp 1 \;;
#X obj 885 639 catch~ mainout-l;
#X obj 1005 639 catch~ mainout-r;
#N canvas 2 50 450 300 copy-sequence 0;
#X obj 72 20 inlet;
#X obj 217 134 r acid1/goodnotes;
#X obj 192 176 s acid2/goodnotes;
#X obj 192 155 list;
#X obj 293 86 f;
#X obj 293 105 s acid2/rootnote;
#X obj 310 67 r acid1/rootnote;
#X obj 41 186 list;
#X obj 72 41 t b b b;
#X obj 65 162 r acid1/newsequence;
#X obj 41 207 s acid2/newsequence;
#X connect 0 0 8 0;
#X connect 1 0 3 1;
#X connect 3 0 2 0;
#X connect 4 0 5 0;
#X connect 6 0 4 1;
#X connect 7 0 10 0;
#X connect 8 0 7 0;
#X connect 8 1 3 0;
#X connect 8 2 4 0;
#X connect 9 0 7 1;
#X restore 20 148 pd copy-sequence;
#X obj 20 126 button 44;
#X obj 33 58 button 41;
#X obj 182 59 button 42;
#X obj 378 58 button 43;
#X obj 184 170 button 45;
#X obj 380 170 button 46;
#X obj 381 278 button 49;
#X obj 184 290 button 48;
#N canvas 634 303 450 300 midiclock 0;
#X obj 20 13 midirealtimein;
#X obj 20 108 f;
#X obj 49 108 + 1;
#X obj 20 269 outlet;
#X obj 117 13 inlet freqdiv;
#X obj 20 202 int;
#X obj 20 223 change;
#X obj 323 270 outlet activeswitch;
#X obj 20 54 t b b;
#X obj 20 246 + 0;
#X obj 208 14 inlet shift;
#X obj 20 33 sel 248;
#X obj 20 181 / 6;
#X connect 0 0 11 0;
#X connect 1 0 2 0;
#X connect 1 0 12 0;
#X connect 2 0 1 1;
#X connect 4 0 12 1;
#X connect 5 0 6 0;
#X connect 6 0 9 0;
#X connect 8 0 1 0;
#X connect 8 1 7 0;
#X connect 9 0 3 0;
#X connect 10 0 9 1;
#X connect 11 0 8 0;
#X connect 12 0 5 0;
#X restore 804 110 pd midiclock;
#X floatatom 804 93 5 1 8 0 - - -, f 5;
#X obj 804 188 s time/tick;
#X floatatom 873 93 5 0 0 0 - - -, f 5;
#X msg 22 387 \; acid1/goodnotes 3 5 8 10 \; acid2/goodnotes 3 5 8
10 \;;
#X msg 873 131 0;
#X obj 941 196 spigot 1;
#X text 743 70 if there is a midi clock present;
#X msg 22 336 \; acid1/surround 0 \; acid2/surround 0 \;;
#X msg 182 80 \; acid1/picksequence bang \; acid1/pickoctave bang \;
acid1/pickslide bang \; acid1/pickdecay bang \; acid1/pickwave bang
\; acid1/stereophase bang \;;
#X msg 184 191 \; acid2/picksequence bang \; acid2/pickdecay bang \;
acid2/pickoctave bang \; acid2/pickslide bang \; acid2/pickwave bang
\; acid2/stereophase bang \;;
#X msg 18 201 \; acid1/stereophase bang \; acid2/stereophase bang \;
;
#X obj 581 456 complete-instrument acid1 0;
#X msg 21 281 \; acid1/surround 127 \; acid2/surround 127 \;;
#X obj 990 325 loadbang;
#X obj 990 346 delay 10;
#X msg 990 367 \; acid1/bd-samples 9 \; acid1/sd-samples 10 \; acid1/hh-samples
9 \; acid2/bd-samples 9 \; acid2/sd-samples 10 \; acid2/hh-samples
9 \;;
#X obj 21 257 loadbang;
#X obj 18 177 loadbang;
#X text 27 12 GarageAcidLab copyright 2010 Chris McCormick <chris@mcormick.cx>
License: GPLv3;
#X obj 899 558 controller 33 master/volume 0 0;
#N canvas 2 50 629 680 saver 0;
#X obj 251 470 textfile;
#X msg 140 371 clear;
#X msg 305 453 print;
#X obj 251 394 list prepend add;
#X obj 251 420 list trim;
#X obj 118 471 s SSSAD_ADMIN;
#X obj 251 326 r SSSAD_ADMIN;
#X obj 251 370 route persist;
#X obj 251 348 list trim;
#X msg 118 405 save;
#X msg 132 444 set;
#X obj 96 335 t a b b;
#X msg 96 518 write \$1;
#X obj 37 627 until;
#X msg 37 606 100;
#X obj 37 583 t b a;
#X msg 85 627 read \$1 \, rewind;
#X text 69 606 Avoid loops. A bang normally also works.;
#X obj 249 517 s SSSAD;
#X obj 296 514 s SSSAD_ADMIN;
#X msg 296 489 set;
#X obj 7 36 bng 15 250 50 0 \$0/save \$1/save save 17 7 0 10 -260097
-1 -1;
#X obj 7 17 bng 15 250 50 0 \$0/load \$1/load load 17 7 0 10 -260097
-1 -1;
#X obj 172 18 bng 15 250 50 0 \$0/forward \$1/forward > 17 7 0 10 -260097
-1 -1;
#X obj 151 18 bng 15 250 50 0 \$0/backward \$1/backward < -7 7 0 10
-260097 -1 -1;
#X obj 7 58 hradio 15 1 0 12 \$0/state \$1/state empty 0 -6 0 8 -260097
-1 -1 2;
#X obj 18 89 r \$0/load;
#X obj 96 239 r \$0/save;
#X obj 96 280 0;
#X obj 37 224 0;
#X obj 111 260 r \$0/state;
#X obj 52 202 r \$0/state;
#X obj 335 75 r \$0/forward;
#X obj 362 126 0;
#X obj 335 126 +;
#X msg 335 96 1;
#X obj 335 147 s \$1/state;
#X msg 425 95 -1;
#X obj 425 75 r \$0/backward;
#X obj 96 304 makefilename states/acid-state-%d.sssad;
#X obj 37 541 makefilename states/acid-state-%d.sssad;
#X obj 18 111 t b b b;
#X msg 57 136 \; pd dsp 0 \;;
#X msg 18 169 \; pd dsp 1 \;;
#X connect 0 0 18 0;
#X connect 0 1 20 0;
#X connect 1 0 0 0;
#X connect 2 0 0 0;
#X connect 3 0 4 0;
#X connect 4 0 0 0;
#X connect 6 0 8 0;
#X connect 7 0 3 0;
#X connect 8 0 7 0;
#X connect 9 0 5 0;
#X connect 10 0 5 0;
#X connect 11 0 12 0;
#X connect 11 1 9 0;
#X connect 11 2 1 0;
#X connect 12 0 0 0;
#X connect 13 0 0 0;
#X connect 14 0 13 0;
#X connect 15 0 14 0;
#X connect 15 1 16 0;
#X connect 16 0 0 0;
#X connect 20 0 19 0;
#X connect 26 0 41 0;
#X connect 27 0 28 0;
#X connect 28 0 39 0;
#X connect 29 0 40 0;
#X connect 30 0 28 1;
#X connect 31 0 29 1;
#X connect 32 0 35 0;
#X connect 33 0 34 1;
#X connect 34 0 33 0;
#X connect 34 0 36 0;
#X connect 35 0 34 0;
#X connect 37 0 34 0;
#X connect 38 0 37 0;
#X connect 39 0 11 0;
#X connect 40 0 15 0;
#X connect 41 0 43 0;
#X connect 41 1 29 0;
#X connect 41 2 42 0;
#X coords 0 -1 1 1 200 80 1 0 0;
#X restore 563 239 pd saver;
#X obj 685 194 button 53;
#X obj 685 215 s \$1/forward;
#X obj 685 154 button 52;
#X obj 685 175 s \$1/backward;
#X obj 563 154 button 50;
#X obj 563 175 s \$1/save;
#X obj 563 194 button 51;
#X obj 563 215 s \$1/load;
#X obj 791 6 samples;
#X obj 19 644 s acid1/retrograde;
#X obj 19 621 tgl 15 0 empty empty empty 17 7 0 10 -262144 -1 -1 0
1;
#X obj 152 621 tgl 15 0 empty empty empty 17 7 0 10 -262144 -1 -1 0
1;
#X obj 152 644 s acid2/retrograde;
#X obj 286 644 s acid1/noteshift;
#X obj 425 644 s acid2/noteshift;
#X floatatom 425 624 5 0 0 0 - - -, f 5;
#X floatatom 286 623 5 0 0 0 - - -, f 5;
#X msg 425 583 0;
#X msg 458 583 1;
#X msg 492 583 2;
#X msg 525 583 3;
#X msg 286 581 0;
#X msg 319 581 1;
#X msg 353 581 2;
#X msg 386 581 3;
#X obj 185 550 s acid2/rootnoteoffset;
#X obj 22 553 s acid1/rootnoteoffset;
#X msg 22 485 0;
#X msg 54 486 2;
#X msg 87 487 3;
#X msg 119 487 5;
#X msg 151 487 7;
#X msg 185 488 0;
#X msg 217 489 2;
#X msg 250 490 3;
#X msg 282 490 5;
#X msg 314 490 7;
#X floatatom 22 537 5 0 0 0 - - -, f 5;
#X floatatom 185 532 5 0 0 0 - - -, f 5;
#X msg 571 523 open /tmp/foo1.wav;
#X obj 781 455 complete-instrument acid2 1;
#X obj 787 285 r \$1/state;
#X obj 787 307 nbsend state/idx state/idx;
#X connect 1 0 0 0;
#X connect 1 0 24 0;
#X connect 1 1 0 1;
#X connect 1 1 24 1;
#X connect 2 0 3 0;
#X connect 2 0 51 0;
#X connect 3 0 2 1;
#X connect 4 0 2 0;
#X connect 5 0 4 0;
#X connect 5 1 2 1;
#X connect 6 0 5 0;
#X connect 8 0 4 0;
#X connect 9 0 10 0;
#X connect 11 0 32 0;
#X connect 14 0 15 0;
#X connect 18 0 19 0;
#X connect 19 0 20 0;
#X connect 21 0 22 0;
#X connect 22 0 23 0;
#X connect 25 0 24 0;
#X connect 26 0 24 0;
#X connect 32 0 8 0;
#X connect 32 1 33 0;
#X connect 37 0 36 0;
#X connect 38 0 12 0;
#X connect 39 0 54 0;
#X connect 40 0 13 0;
#X connect 41 0 55 0;
#X connect 42 0 16 0;
#X connect 43 0 21 0;
#X connect 44 0 18 0;
#X connect 45 0 47 0;
#X connect 45 1 50 0;
#X connect 46 0 45 0;
#X connect 48 0 45 1;
#X connect 50 0 51 1;
#X connect 51 0 7 0;
#X connect 57 0 1 0;
#X connect 57 1 1 1;
#X connect 59 0 60 0;
#X connect 60 0 61 0;
#X connect 62 0 58 0;
#X connect 63 0 56 0;
#X connect 67 0 68 0;
#X connect 69 0 70 0;
#X connect 71 0 72 0;
#X connect 73 0 74 0;
#X connect 77 0 76 0;
#X connect 78 0 79 0;
#X connect 82 0 81 0;
#X connect 83 0 80 0;
#X connect 84 0 82 0;
#X connect 85 0 82 0;
#X connect 86 0 82 0;
#X connect 87 0 82 0;
#X connect 88 0 83 0;
#X connect 89 0 83 0;
#X connect 90 0 83 0;
#X connect 91 0 83 0;
#X connect 94 0 104 0;
#X connect 95 0 104 0;
#X connect 96 0 104 0;
#X connect 97 0 104 0;
#X connect 98 0 104 0;
#X connect 99 0 105 0;
#X connect 100 0 105 0;
#X connect 101 0 105 0;
#X connect 102 0 105 0;
#X connect 103 0 105 0;
#X connect 104 0 93 0;
#X connect 105 0 92 0;
#X connect 106 0 24 0;
#X connect 107 0 1 0;
#X connect 107 1 1 1;
#X connect 108 0 109 0;
