#N canvas 212 45 943 687 10;
#X declare -path rj;
#X obj 450 14 r #accelerate;
#X obj 450 38 unpack 0 0 0;
#X obj 40 40 r #touch;
#X obj 40 283 list split 1;
#N canvas 380 222 450 300 rjdj-interface 0;
#X text 18 12 pressing the beaker loads a new one;
#X text 18 32 tilting to the right is cutoff;
#X text 18 54 tilting to the left is cutoff with distortion on;
#X text 19 77 tilting forwards is delay feedback;
#X text 18 100 touching the bubbles toggles the beat;
#X text 18 126 right and left arrows move the beat back and forward
;
#X text 18 150 left knob is delay length;
#X text 18 170 right knob is filter resonance;
#X restore 814 8 pd rjdj-interface;
#X obj 814 95 core;
#X obj 814 122 soundoutput;
#X obj 814 43 soundinput;
#X obj 40 61 route down xy;
#X obj 84 87 list split 1;
#X obj 566 294 * 127;
#X obj 566 376 s cutoff;
#X obj 174 403 s beat;
#X obj 536 107 s feedback;
#X msg 307 44 \; delay 66;
#X obj 307 22 loadbang;
#X obj 536 85 * 127;
#X obj 449 113 + 0.3;
#X obj 450 157 < 0;
#X obj 449 134 t f f;
#X obj 450 283 s distortion;
#X text 183 444 bubbles = 37x52;
#X text 183 458 knob = 96x96;
#X text 183 472 position = 21x21;
#X text 182 489 arrow = 53x71;
#N canvas 64 518 525 152 network 0;
#X obj 273 12 loadbang;
#X obj 390 83 list prepend send;
#X obj 390 103 list trim;
#X obj 11 34 list split 1;
#X obj 33 125 s;
#X obj 11 76 list;
#X obj 11 55 t b a;
#X obj 51 76 symbol;
#X msg 273 34 connect 255.255.255.255 10123;
#X obj 390 58 r NET;
#X obj 11 12 netreceive 10124 1;
#X obj 390 123 netsend 1;
#X connect 0 0 8 0;
#X connect 1 0 2 0;
#X connect 2 0 11 0;
#X connect 3 0 6 0;
#X connect 3 1 5 1;
#X connect 5 0 4 0;
#X connect 6 0 5 0;
#X connect 6 1 7 0;
#X connect 7 0 4 1;
#X connect 8 0 11 0;
#X connect 9 0 1 0;
#X connect 10 0 3 0;
#X restore 861 661 pd network;
#X obj 345 449 rj_image images/GarageAcidLabBubbles.png;
#X obj 566 272 *;
#X obj 490 60 moses 0;
#X obj 626 67 == 1;
#X obj 472 199 == 0;
#X obj 472 219 * 2;
#X obj 472 238 - 1;
#X obj 450 177 t f f f;
#X obj 566 249 *;
#X obj 583 209 * 0.43;
#X obj 583 229 + 1;
#X obj 345 506 rj_image images/GarageAcidLabRightArrow.png;
#X obj 345 552 rj_image images/GarageAcidLabLeftArrow.png;
#N canvas 518 152 450 300 makenew 0;
#X obj 11 8 inlet;
#X obj 60 267 s makenew;
#X obj 11 31 unpack f f;
#X obj 11 53 t f f;
#X obj 12 106 > 110;
#X obj 43 78 < 210;
#X obj 60 170 &&;
#X obj 90 141 &&;
#X obj 60 192 sel 1;
#X obj 78 53 > 90;
#X obj 92 238 outlet;
#X obj 60 212 t b b;
#X connect 0 0 2 0;
#X connect 2 0 3 0;
#X connect 2 1 9 0;
#X connect 3 0 4 0;
#X connect 3 1 5 0;
#X connect 4 0 6 0;
#X connect 5 0 7 0;
#X connect 6 0 8 0;
#X connect 7 0 6 1;
#X connect 8 0 11 0;
#X connect 9 0 7 1;
#X connect 11 0 1 0;
#X connect 11 1 10 0;
#X restore 80 352 pd makenew;
#N canvas 0 22 450 300 beat 0;
#X obj 11 12 inlet;
#X obj 13 272 outlet;
#X obj 14 241 f;
#X obj 48 241 == 0;
#X obj 11 31 unpack f f;
#X obj 11 53 t f f;
#X obj 60 170 &&;
#X obj 90 141 &&;
#X obj 60 192 sel 1;
#X obj 78 52 < 80;
#X obj 43 79 < 210;
#X obj 12 106 > 110;
#X connect 0 0 4 0;
#X connect 2 0 3 0;
#X connect 2 0 1 0;
#X connect 3 0 2 1;
#X connect 4 0 5 0;
#X connect 4 1 9 0;
#X connect 5 0 11 0;
#X connect 5 1 10 0;
#X connect 6 0 8 0;
#X connect 7 0 6 1;
#X connect 8 0 2 0;
#X connect 9 0 7 1;
#X connect 10 0 7 0;
#X connect 11 0 6 0;
#X restore 173 352 pd beat;
#X msg 490 80 0;
#X obj 346 609 rj_image images/GarageAcidLabSlider.png;
#X obj 345 655 rj_image images/GarageAcidLabSlider.png;
#X obj 345 428 showimage images/GarageAcidLabBubbles.png 161 30 0;
#X obj 345 485 showimage images/GarageAcidLabRightArrow.png 285 250
1;
#X obj 345 532 showimage images/GarageAcidLabLeftArrow.png 35 250 1
;
#X obj 346 588 showimage images/GarageAcidLabSlider.png 255 100 1;
#X obj 344 634 showimage images/GarageAcidLabSlider.png 65 100 1;
#N canvas 667 102 450 300 shift 0;
#X msg 16 267 \; backforward -1 \;;
#X msg 136 267 \; backforward 1 \;;
#X obj 16 8 inlet;
#X obj 16 29 unpack f f;
#X obj 83 49 t f f;
#X obj 126 75 > 200;
#X obj 83 75 < 290;
#X obj 83 101 &&;
#X obj 16 225 &&;
#X obj 136 225 &&;
#X obj 16 246 sel 1;
#X obj 136 246 sel 1;
#X obj 16 122 t f f;
#X obj 73 171 > 250;
#X obj 16 171 < 70;
#X connect 2 0 3 0;
#X connect 3 0 12 0;
#X connect 3 1 4 0;
#X connect 4 0 6 0;
#X connect 4 1 5 0;
#X connect 5 0 7 1;
#X connect 6 0 7 0;
#X connect 7 0 9 1;
#X connect 7 0 8 1;
#X connect 8 0 10 0;
#X connect 9 0 11 0;
#X connect 10 0 0 0;
#X connect 11 0 1 0;
#X connect 12 0 14 0;
#X connect 12 1 13 0;
#X connect 13 0 9 0;
#X connect 14 0 8 0;
#X restore 238 353 pd shift;
#X obj 80 305 t a a a a;
#X obj 124 109 t a a;
#X obj 124 216 s delay;
#X obj 156 153 s rez;
#X obj 14 392 timer;
#X obj 14 352 loadbang;
#X obj 14 416 int;
#X obj 14 438 s SEED;
#X obj 566 314 int;
#X obj 566 355 line;
#X obj 258 91 loadbang;
#X msg 258 111 0;
#X obj 124 196 sliderthing 65;
#X msg 219 175 0.519685;
#X msg 566 335 \$1 30;
#X obj 156 132 sliderthing 255;
#X obj 15 659 rj_image images/GarageAcidLabPositon.png;
#X msg 15 639 move 50 \$1;
#X obj 108 639 rj_image images/GarageAcidLabPositon.png;
#X msg 108 619 move 50 \$1;
#X obj 21 558 seededrandom 3;
#X obj 79 372 t b b;
#X obj 134 559 seededrandom 3;
#X obj 134 580 * 50;
#X obj 21 579 * 50;
#X connect 0 0 1 0;
#X connect 1 0 17 0;
#X connect 1 1 28 0;
#X connect 1 2 29 0;
#X connect 2 0 8 0;
#X connect 3 1 50 0;
#X connect 5 0 6 0;
#X connect 5 1 6 1;
#X connect 7 0 5 0;
#X connect 7 1 5 0;
#X connect 8 0 3 0;
#X connect 8 1 9 0;
#X connect 9 1 51 0;
#X connect 10 0 58 0;
#X connect 15 0 14 0;
#X connect 16 0 13 0;
#X connect 17 0 19 0;
#X connect 18 0 33 0;
#X connect 19 0 18 0;
#X connect 19 1 34 0;
#X connect 27 0 10 0;
#X connect 28 0 41 0;
#X connect 28 1 16 0;
#X connect 30 0 31 0;
#X connect 31 0 32 0;
#X connect 32 0 27 1;
#X connect 33 0 20 0;
#X connect 33 1 30 0;
#X connect 33 2 35 0;
#X connect 34 0 27 0;
#X connect 35 0 36 0;
#X connect 36 0 34 1;
#X connect 39 0 71 0;
#X connect 40 0 12 0;
#X connect 40 0 44 0;
#X connect 41 0 13 0;
#X connect 44 0 26 0;
#X connect 45 0 37 0;
#X connect 46 0 38 0;
#X connect 47 0 42 0;
#X connect 48 0 43 0;
#X connect 50 0 39 0;
#X connect 50 1 40 0;
#X connect 50 2 49 0;
#X connect 51 0 62 0;
#X connect 51 1 65 0;
#X connect 54 0 56 0;
#X connect 55 0 54 0;
#X connect 56 0 57 0;
#X connect 58 0 64 0;
#X connect 59 0 11 0;
#X connect 60 0 61 0;
#X connect 60 0 63 0;
#X connect 61 0 65 1;
#X connect 62 0 52 0;
#X connect 63 0 62 1;
#X connect 64 0 59 0;
#X connect 65 0 53 0;
#X connect 67 0 66 0;
#X connect 69 0 68 0;
#X connect 70 0 74 0;
#X connect 71 0 70 0;
#X connect 71 0 72 0;
#X connect 71 1 54 1;
#X connect 72 0 73 0;
#X connect 73 0 69 0;
#X connect 74 0 67 0;
