#N canvas 112 52 943 687 10;
#X declare -path rj;
#X obj 450 356 s shake;
#X obj 450 14 r #accelerate;
#X obj 450 54 unpack 0 0 0;
#X obj 527 356 print shaken;
#X obj 557 12 inlet;
#X obj 40 40 r #touch;
#X obj 40 99 list split 1;
#X obj 80 139 unpack 0 0;
#X obj 40 61 route up;
#X obj 80 160 m_touch2grid mygrid2 6 6;
#X obj 245 218 select 5;
#X text 255 195 upper right;
#X obj 245 246 canofbeats-recorder 1;
#X obj 245 268 canofbeats-recorder 2;
#X obj 654 105 exceed 2.31;
#X obj 542 105 exceed 2.31;
#X obj 450 105 exceed 2.31;
#X msg 467 199 0;
#X msg 449 141 bang;
#X obj 449 223 0;
#X obj 449 160 t b b;
#X obj 479 223 + 1;
#X obj 512 223 delay 500;
#X obj 450 294 t b b b;
#X obj 450 271 sel 3;
#X text 421 179 they have to shake it 4 times per 0.5 second;
#N canvas 380 222 450 300 rjdj-interface 0;
#X text 18 12 pressing the beaker loads a new one;
#X text 18 32 tilting to the right is cutoff;
#X text 18 54 tilting to the left is cutoff with distortion on;
#X text 19 77 tilting forwards is delay feedback;
#X text 18 100 touching the bubbles toggles the beat;
#X text 18 126 right and left arrows move the beat back and forward
;
#X text 18 150 left knob is delay length;
#X text 18 170 right knob is filter resonance;
#X restore 814 8 pd rjdj-interface;
#X obj 905 30 core;
#X connect 1 0 2 0;
#X connect 2 0 16 0;
#X connect 2 1 15 0;
#X connect 2 2 14 0;
#X connect 4 0 18 0;
#X connect 5 0 8 0;
#X connect 6 1 7 0;
#X connect 7 0 9 0;
#X connect 7 1 9 1;
#X connect 8 0 6 0;
#X connect 9 2 10 0;
#X connect 10 0 12 0;
#X connect 10 0 13 0;
#X connect 14 0 18 0;
#X connect 15 0 18 0;
#X connect 16 0 18 0;
#X connect 17 0 19 1;
#X connect 18 0 20 0;
#X connect 19 0 21 0;
#X connect 19 0 24 0;
#X connect 20 0 19 0;
#X connect 20 1 22 0;
#X connect 21 0 19 1;
#X connect 22 0 17 0;
#X connect 23 0 0 0;
#X connect 23 1 3 0;
#X connect 23 2 17 0;
#X connect 24 0 23 0;
