#N canvas 212 45 943 687 10;
#X declare -path rj;
#X obj 450 14 r #accelerate;
#X obj 450 38 unpack 0 0 0;
#X obj 40 40 r #touch;
#X obj 40 347 list split 1;
#N canvas 380 222 450 300 rjdj-interface 0;
#X text 18 12 pressing the beaker loads a new one;
#X text 18 32 tilting to the right is cutoff;
#X text 18 54 tilting to the left is cutoff with distortion on;
#X text 19 77 tilting forwards is delay feedback;
#X text 18 100 touching the bubbles toggles the beat;
#X text 18 126 right and left arrows move the beat back and forward
;
#X text 18 150 left knob is delay length;
#X text 18 170 right knob is filter resonance;
#X restore 814 8 pd rjdj-interface;
#X obj 814 95 core;
#X obj 814 122 soundoutput;
#X obj 814 43 soundinput;
#X obj 40 61 route down xy;
#X obj 84 87 list split 1;
#X obj 491 302 * 127;
#X obj 491 384 s cutoff;
#X obj 174 446 s beat;
#X obj 562 219 s feedback;
#X msg 307 44 \; delay 66;
#X obj 307 22 loadbang;
#X obj 558 106 s distortion;
#X text 277 464 bubbles = 37x52;
#X text 276 497 arrow = 53x71;
#N canvas 212 45 328 231 network 0;
#X obj 188 99 list prepend send;
#X obj 188 119 list trim;
#X obj 11 131 list split 1;
#X obj 33 213 s;
#X obj 11 173 list;
#X obj 11 152 t b a;
#X obj 188 56 r NET;
#X obj 188 77 spigot;
#X obj 11 33 route ip;
#X obj 11 53 list prepend connect;
#X obj 11 73 list append 10315;
#X obj 11 93 list trim;
#X obj 51 173 symbol;
#X obj 11 193 list trim;
#X obj 11 12 netreceive 10314;
#X obj 188 139 netsend;
#X connect 0 0 1 0;
#X connect 1 0 15 0;
#X connect 2 0 5 0;
#X connect 2 1 4 1;
#X connect 4 0 13 0;
#X connect 5 0 4 0;
#X connect 5 1 12 0;
#X connect 6 0 7 0;
#X connect 7 0 0 0;
#X connect 8 0 9 0;
#X connect 8 1 2 0;
#X connect 9 0 10 0;
#X connect 10 0 11 0;
#X connect 11 0 15 0;
#X connect 12 0 3 1;
#X connect 13 0 3 0;
#X connect 14 0 8 0;
#X connect 15 0 7 1;
#X restore 121 660 pd network;
#X obj 450 481 rj_image images/GarageAcidLabBubbles.png;
#X obj 626 67 == 1;
#X obj 450 523 rj_image images/GarageAcidLabRightArrow.png;
#X obj 450 564 rj_image images/GarageAcidLabLeftArrow.png;
#N canvas 518 152 450 300 makenew 0;
#X obj 11 8 inlet;
#X obj 60 267 s makenew;
#X obj 11 31 unpack f f;
#X obj 11 53 t f f;
#X obj 12 106 > 110;
#X obj 43 78 < 210;
#X obj 60 170 &&;
#X obj 90 141 &&;
#X obj 60 192 sel 1;
#X obj 78 53 > 90;
#X obj 92 238 outlet;
#X obj 60 212 t b b;
#X connect 0 0 2 0;
#X connect 2 0 3 0;
#X connect 2 1 9 0;
#X connect 3 0 4 0;
#X connect 3 1 5 0;
#X connect 4 0 6 0;
#X connect 5 0 7 0;
#X connect 6 0 8 0;
#X connect 7 0 6 1;
#X connect 8 0 11 0;
#X connect 9 0 7 1;
#X connect 11 0 1 0;
#X connect 11 1 10 0;
#X restore 80 410 pd makenew;
#N canvas 0 22 450 300 beat 0;
#X obj 11 12 inlet;
#X obj 13 272 outlet;
#X obj 14 241 f;
#X obj 48 241 == 0;
#X obj 11 31 unpack f f;
#X obj 11 53 t f f;
#X obj 60 170 &&;
#X obj 90 141 &&;
#X obj 60 192 sel 1;
#X obj 78 52 < 80;
#X obj 43 79 < 210;
#X obj 12 106 > 110;
#X connect 0 0 4 0;
#X connect 2 0 3 0;
#X connect 2 0 1 0;
#X connect 3 0 2 1;
#X connect 4 0 5 0;
#X connect 4 1 9 0;
#X connect 5 0 11 0;
#X connect 5 1 10 0;
#X connect 6 0 8 0;
#X connect 7 0 6 1;
#X connect 8 0 2 0;
#X connect 9 0 7 1;
#X connect 10 0 7 0;
#X connect 11 0 6 0;
#X restore 173 410 pd beat;
#X obj 450 621 rj_image images/GarageAcidLabSlider.png;
#X obj 450 663 rj_image images/GarageAcidLabSlider.png;
#X obj 450 460 showimage images/GarageAcidLabBubbles.png 161 30 0;
#X obj 450 502 showimage images/GarageAcidLabRightArrow.png 285 250
1;
#X obj 450 544 showimage images/GarageAcidLabLeftArrow.png 35 250 1
;
#X obj 450 600 showimage images/GarageAcidLabSlider.png 255 100 1;
#X obj 450 642 showimage images/GarageAcidLabSlider.png 65 100 1;
#N canvas 667 102 450 300 shift 0;
#X msg 16 267 \; backforward -1 \;;
#X msg 136 267 \; backforward 1 \;;
#X obj 16 8 inlet;
#X obj 16 29 unpack f f;
#X obj 83 49 t f f;
#X obj 126 75 > 200;
#X obj 83 75 < 290;
#X obj 83 101 &&;
#X obj 16 225 &&;
#X obj 136 225 &&;
#X obj 16 246 sel 1;
#X obj 136 246 sel 1;
#X obj 16 122 t f f;
#X obj 73 171 > 250;
#X obj 16 171 < 70;
#X connect 2 0 3 0;
#X connect 3 0 12 0;
#X connect 3 1 4 0;
#X connect 4 0 6 0;
#X connect 4 1 5 0;
#X connect 5 0 7 1;
#X connect 6 0 7 0;
#X connect 7 0 9 1;
#X connect 7 0 8 1;
#X connect 8 0 10 0;
#X connect 9 0 11 0;
#X connect 10 0 0 0;
#X connect 11 0 1 0;
#X connect 12 0 14 0;
#X connect 12 1 13 0;
#X connect 13 0 9 0;
#X connect 14 0 8 0;
#X restore 238 411 pd shift;
#X obj 80 369 t a a a a;
#X obj 124 109 t a a;
#X obj 124 322 s delay;
#X obj 156 240 s rez;
#X obj 14 435 timer;
#X obj 14 410 loadbang;
#X obj 14 459 int;
#X obj 14 481 s SEED;
#X obj 491 322 int;
#X obj 491 363 line;
#X obj 258 91 loadbang;
#X msg 258 111 0;
#X msg 219 241 0.519685;
#X msg 491 343 \$1 30;
#X obj 156 132 sliderthing 255;
#X text 277 480 position = 22x22;
#X obj 14 658 net tick;
#X msg 279 530 \; makenew bang \;;
#X obj 14 598 net slide;
#X obj 14 618 net octave;
#X obj 14 638 net accent;
#X obj 14 578 net notes;
#X obj 14 558 net goodnotes;
#X text 690 166 TODO: change layout of tilt stuff;
#X obj 121 618 net hh-loop;
#X obj 121 598 net sd-loop;
#X obj 121 578 net bd-loop;
#X obj 121 558 net cowbell-loop;
#X obj 124 262 sliderthing 65;
#X obj 124 282 * 127;
#X obj 156 182 *;
#X obj 156 152 t f f;
#X obj 156 202 * 127;
#X obj 156 221 int;
#X obj 124 302 int;
#X obj 450 83 t f f;
#X obj 490 60 t f f;
#X obj 558 83 > 0;
#X obj 491 281 abs;
#X obj 449 224 moses 0;
#X obj 450 203 + 0.3;
#X obj 449 245 / 0.7;
#X obj 496 245 * 0.7;
#X obj 562 195 *;
#X obj 482 148 t b f;
#X obj 561 137 * -127;
#X obj 561 158 abs;
#X obj 482 127 < -0.3;
#X connect 0 0 1 0;
#X connect 1 0 69 0;
#X connect 1 1 70 0;
#X connect 1 2 21 0;
#X connect 2 0 8 0;
#X connect 3 1 34 0;
#X connect 5 0 6 0;
#X connect 5 1 6 1;
#X connect 7 0 5 0;
#X connect 7 1 5 0;
#X connect 8 0 3 0;
#X connect 8 1 9 0;
#X connect 9 1 35 0;
#X connect 10 0 42 0;
#X connect 15 0 14 0;
#X connect 24 0 38 1;
#X connect 25 0 12 0;
#X connect 25 0 28 0;
#X connect 28 0 20 0;
#X connect 29 0 22 0;
#X connect 30 0 23 0;
#X connect 31 0 26 0;
#X connect 32 0 27 0;
#X connect 34 0 24 0;
#X connect 34 1 25 0;
#X connect 34 2 33 0;
#X connect 35 0 62 0;
#X connect 35 1 48 0;
#X connect 38 0 40 0;
#X connect 39 0 38 0;
#X connect 40 0 41 0;
#X connect 42 0 47 0;
#X connect 43 0 11 0;
#X connect 44 0 45 0;
#X connect 44 0 46 0;
#X connect 45 0 48 1;
#X connect 46 0 62 1;
#X connect 47 0 43 0;
#X connect 48 0 65 0;
#X connect 62 0 63 0;
#X connect 63 0 68 0;
#X connect 64 0 66 0;
#X connect 65 0 64 0;
#X connect 65 1 64 1;
#X connect 66 0 67 0;
#X connect 67 0 37 0;
#X connect 68 0 36 0;
#X connect 69 0 74 0;
#X connect 69 1 81 0;
#X connect 70 0 79 0;
#X connect 70 1 71 0;
#X connect 71 0 16 0;
#X connect 72 0 10 0;
#X connect 73 0 75 0;
#X connect 73 1 76 0;
#X connect 74 0 73 0;
#X connect 75 0 72 0;
#X connect 76 0 72 0;
#X connect 77 0 13 0;
#X connect 78 0 77 0;
#X connect 78 1 77 1;
#X connect 79 0 80 0;
#X connect 80 0 77 0;
#X connect 81 0 78 0;
