#N canvas 212 45 943 687 10;
#X declare -path rj;
#X obj 450 14 r #accelerate;
#X obj 450 38 unpack 0 0 0;
#X obj 40 40 r #touch;
#X obj 40 289 list split 1;
#N canvas 380 222 450 300 rjdj-interface 0;
#X text 18 12 pressing the beaker loads a new one;
#X text 18 32 tilting to the right is cutoff;
#X text 18 54 tilting to the left is cutoff with distortion on;
#X text 19 77 tilting forwards is delay feedback;
#X text 18 100 touching the bubbles toggles the beat;
#X text 18 126 right and left arrows move the beat back and forward
;
#X text 18 150 left knob is delay length;
#X text 18 170 right knob is filter resonance;
#X restore 814 8 pd rjdj-interface;
#X obj 814 95 core;
#X obj 814 122 soundoutput;
#X obj 814 43 soundinput;
#X obj 40 61 route down xy;
#X obj 450 340 * 127;
#X obj 450 422 s cutoff;
#X obj 174 388 s beat;
#X msg 307 44 \; delay 66;
#X obj 307 22 loadbang;
#N canvas 212 45 328 231 network 0;
#X obj 188 99 list prepend send;
#X obj 188 119 list trim;
#X obj 11 131 list split 1;
#X obj 33 213 s;
#X obj 11 173 list;
#X obj 11 152 t b a;
#X obj 188 56 r NET;
#X obj 188 77 spigot;
#X obj 11 33 route ip;
#X obj 11 53 list prepend connect;
#X obj 11 73 list append 10315;
#X obj 11 93 list trim;
#X obj 51 173 symbol;
#X obj 11 193 list trim;
#X obj 11 12 netreceive 10314;
#X obj 188 139 netsend;
#X connect 0 0 1 0;
#X connect 1 0 15 0;
#X connect 2 0 5 0;
#X connect 2 1 4 1;
#X connect 4 0 13 0;
#X connect 5 0 4 0;
#X connect 5 1 12 0;
#X connect 6 0 7 0;
#X connect 7 0 0 0;
#X connect 8 0 9 0;
#X connect 8 1 2 0;
#X connect 9 0 10 0;
#X connect 10 0 11 0;
#X connect 11 0 15 0;
#X connect 12 0 3 1;
#X connect 13 0 3 0;
#X connect 14 0 8 0;
#X connect 15 0 7 1;
#X restore 121 660 pd network;
#N canvas 518 152 450 300 makenew 0;
#X obj 11 8 inlet;
#X obj 60 267 s makenew;
#X obj 11 31 unpack f f;
#X obj 11 53 t f f;
#X obj 12 106 > 110;
#X obj 43 78 < 210;
#X obj 60 170 &&;
#X obj 90 141 &&;
#X obj 60 192 sel 1;
#X obj 92 238 outlet;
#X obj 60 212 t b b;
#X obj 78 53 > 130;
#X connect 0 0 2 0;
#X connect 2 0 3 0;
#X connect 2 1 11 0;
#X connect 3 0 4 0;
#X connect 3 1 5 0;
#X connect 4 0 6 0;
#X connect 5 0 7 0;
#X connect 6 0 8 0;
#X connect 7 0 6 1;
#X connect 8 0 10 0;
#X connect 10 0 1 0;
#X connect 10 1 9 0;
#X connect 11 0 7 1;
#X restore 80 352 pd makenew;
#N canvas 0 22 450 300 beat 0;
#X obj 11 12 inlet;
#X obj 13 272 outlet;
#X obj 14 241 f;
#X obj 48 241 == 0;
#X obj 11 31 unpack f f;
#X obj 11 53 t f f;
#X obj 60 170 &&;
#X obj 90 141 &&;
#X obj 60 192 sel 1;
#X obj 43 79 < 210;
#X obj 12 106 > 110;
#X obj 78 52 < 120;
#X connect 0 0 4 0;
#X connect 2 0 3 0;
#X connect 2 0 1 0;
#X connect 3 0 2 1;
#X connect 4 0 5 0;
#X connect 4 1 11 0;
#X connect 5 0 10 0;
#X connect 5 1 9 0;
#X connect 6 0 8 0;
#X connect 7 0 6 1;
#X connect 8 0 2 0;
#X connect 9 0 7 0;
#X connect 10 0 6 0;
#X connect 11 0 7 1;
#X restore 173 352 pd beat;
#X obj 80 311 t a a a a;
#X obj 14 377 timer;
#X obj 14 352 loadbang;
#X obj 14 401 int;
#X obj 14 423 s SEED;
#X obj 450 360 int;
#X obj 450 401 line;
#X msg 450 381 \$1 30;
#X obj 14 658 net tick;
#X msg 237 177 \; makenew bang \;;
#X obj 14 598 net slide;
#X obj 14 618 net octave;
#X obj 14 638 net accent;
#X obj 14 578 net notes;
#X obj 14 558 net goodnotes;
#X text 690 166 TODO: change layout of tilt stuff;
#X obj 121 618 net hh-loop;
#X obj 121 598 net sd-loop;
#X obj 121 578 net bd-loop;
#X obj 121 558 net cowbell-loop;
#X obj 450 294 + 1;
#X obj 450 315 / 2;
#X obj 567 395 s rez;
#X obj 567 374 + 10;
#X obj 490 67 moses 0;
#X obj 536 418 s feedback;
#X obj 490 88 * -1;
#X obj 490 110 * 127;
#X obj 490 131 s rez;
#X obj 535 256 moses 0.25;
#X obj 535 278 * 4;
#X msg 602 276 1;
#X obj 535 307 * 60;
#X obj 535 351 t f f;
#X obj 536 88 t f f;
#X obj 568 108 * 3;
#X obj 568 129 int;
#X obj 568 150 change;
#X obj 535 328 change;
#X obj 568 171 sel 0 1 2;
#X obj 567 227 s delay;
#X msg 567 200 66;
#X msg 603 200 80;
#X obj 450 481 rj_image images/GarageAcidLabBubbles.png;
#X obj 450 531 rj_image images/GarageAcidLabArrow.png;
#X obj 450 578 rj_image images/GarageAcidLabTap.png;
#X obj 450 621 rj_image images/GarageAcidLabTilt.png;
#X obj 450 664 rj_image images/GarageAcidLabTap.png;
#X obj 450 460 showimage images/GarageAcidLabBubbles.png 161 30 0 1
;
#X obj 450 510 showimage images/GarageAcidLabArrow.png 155 80 1 0;
#X obj 450 557 showimage images/GarageAcidLabTap.png 151 100 1 0;
#X obj 450 600 showimage images/GarageAcidLabTilt.png 147 180 1 0;
#X obj 450 643 showimage images/GarageAcidLabTap.png 151 260 1 0;
#X connect 0 0 1 0;
#X connect 1 0 37 0;
#X connect 1 1 41 0;
#X connect 2 0 8 0;
#X connect 3 1 17 0;
#X connect 5 0 6 0;
#X connect 5 1 6 1;
#X connect 7 0 5 0;
#X connect 7 1 5 0;
#X connect 8 0 3 0;
#X connect 9 0 22 0;
#X connect 13 0 12 0;
#X connect 15 0 18 1;
#X connect 16 0 11 0;
#X connect 16 0 65 0;
#X connect 17 0 15 0;
#X connect 17 1 16 0;
#X connect 18 0 20 0;
#X connect 19 0 18 0;
#X connect 20 0 21 0;
#X connect 22 0 24 0;
#X connect 23 0 10 0;
#X connect 24 0 23 0;
#X connect 37 0 38 0;
#X connect 38 0 9 0;
#X connect 40 0 39 0;
#X connect 41 0 43 0;
#X connect 41 1 51 0;
#X connect 43 0 44 0;
#X connect 44 0 45 0;
#X connect 46 0 47 0;
#X connect 46 1 48 0;
#X connect 47 0 49 0;
#X connect 48 0 49 0;
#X connect 49 0 55 0;
#X connect 50 0 42 0;
#X connect 50 1 40 0;
#X connect 51 0 46 0;
#X connect 51 1 52 0;
#X connect 52 0 53 0;
#X connect 53 0 54 0;
#X connect 54 0 56 0;
#X connect 55 0 50 0;
#X connect 56 0 58 0;
#X connect 56 1 58 0;
#X connect 56 2 59 0;
#X connect 58 0 57 0;
#X connect 59 0 57 0;
#X connect 65 0 60 0;
#X connect 66 0 61 0;
#X connect 67 0 62 0;
#X connect 68 0 63 0;
#X connect 69 0 64 0;
