#N canvas 336 160 310 377 10;
#X obj 36 41 env~;
#X obj 36 64 dbtorms;
#X obj 35 271 line~;
#X obj 17 299 *~;
#X obj 17 321 outlet~;
#X obj 18 18 inlet~;
#X obj 35 215 /;
#X msg 35 193 1;
#X obj 35 171 t b f;
#X obj 36 85 t f f;
#X msg 35 238 \$1 10;
#X obj 36 108 moses 0.05;
#X connect 0 0 1 0;
#X connect 1 0 9 0;
#X connect 2 0 3 1;
#X connect 3 0 4 0;
#X connect 5 0 0 0;
#X connect 5 0 3 0;
#X connect 6 0 10 0;
#X connect 7 0 6 0;
#X connect 8 0 7 0;
#X connect 8 1 6 1;
#X connect 9 0 11 0;
#X connect 10 0 2 0;
#X connect 11 1 8 0;
