#N canvas 59 214 590 539 10;
#X declare -path rj;
#X obj 16 207 bng 100 250 50 0 makenew empty kick_it 17 7 0 10 -258113
-1 -1;
#X obj 154 231 nbx 5 14 0 127 0 0 cutoff empty cutoff 0 -8 0 10 -260097
-1 -1 119.514 256;
#X obj 154 261 nbx 5 14 0 127 0 0 rez empty rez 0 -8 0 10 -260097 -1
-1 48 256;
#X obj 231 261 nbx 5 14 0 127 0 0 feedback empty feedback 0 -8 0 10
-4160 -262144 -1 38 256;
#X obj 230 231 nbx 5 14 0 127 0 0 delay empty delay 0 -8 0 10 -4160
-262144 -1 64 256;
#X obj 153 294 tgl 15 0 beat empty beat 17 7 0 10 -4034 -1 -1 1 1;
#X msg 95 353 \; backforward -1 \;;
#X msg 215 353 \; backforward 1 \;;
#X obj 233 294 tgl 15 0 distortion empty distortion 17 7 0 10 -258113
-1 -1 0 1;
#X obj 529 41 core;
#X obj 529 224 dac~;
#X obj 529 18 adc~;
#N canvas 271 234 450 300 v 0;
#X obj 10 10 inlet~;
#X obj 388 8 inlet~;
#X obj 10 280 outlet~;
#X obj 388 277 outlet~;
#X obj 107 119 vsl 16 128 0 127 0 0 empty empty empty 0 -9 0 10 -191407
-1 -1 1700 1;
#X obj 388 158 *~;
#X obj 107 258 / 127;
#X obj 10 153 *~;
#X connect 0 0 7 0;
#X connect 1 0 5 0;
#X connect 4 0 6 0;
#X connect 5 0 3 0;
#X connect 6 0 5 1;
#X connect 6 0 7 1;
#X connect 7 0 2 0;
#X coords 0 -1 1 1 30 155 1 100 100;
#X restore 529 64 pd v;
#N canvas 0 22 462 426 randomsweep 0;
#X obj 10 9 inlet;
#X obj 96 389 outlet;
#X obj 227 119 metro;
#X obj 227 139 f;
#X obj 256 139 + 1;
#X obj 228 188 cos;
#X obj 259 92 random 300;
#X obj 97 248 +;
#X obj 227 207 * 0.5;
#X obj 339 91 random 1000;
#X obj 339 112 / 1000;
#X obj 227 165 *;
#X obj 226 57 t b b b;
#X obj 33 135 metro;
#X obj 33 155 f;
#X obj 62 155 + 1;
#X obj 65 108 random 300;
#X obj 33 223 * 0.5;
#X obj 145 107 random 1000;
#X obj 145 128 / 1000;
#X obj 33 181 *;
#X obj 32 73 t b b b;
#X obj 34 204 sin;
#X obj 10 30 t b b;
#X obj 97 296 * 127;
#X obj 96 367 line;
#X msg 96 346 \$1 500;
#X obj 97 318 abs;
#X obj 97 269 + 0.5;
#X connect 0 0 23 0;
#X connect 2 0 3 0;
#X connect 3 0 4 0;
#X connect 3 0 11 0;
#X connect 4 0 3 1;
#X connect 5 0 8 0;
#X connect 6 0 2 1;
#X connect 7 0 28 0;
#X connect 8 0 7 1;
#X connect 9 0 10 0;
#X connect 10 0 11 1;
#X connect 11 0 5 0;
#X connect 12 0 2 0;
#X connect 12 1 6 0;
#X connect 12 2 9 0;
#X connect 13 0 14 0;
#X connect 14 0 15 0;
#X connect 14 0 20 0;
#X connect 15 0 14 1;
#X connect 16 0 13 1;
#X connect 17 0 7 0;
#X connect 18 0 19 0;
#X connect 19 0 20 1;
#X connect 20 0 22 0;
#X connect 21 0 13 0;
#X connect 21 1 16 0;
#X connect 21 2 18 0;
#X connect 22 0 17 0;
#X connect 23 0 21 0;
#X connect 23 1 12 0;
#X connect 24 0 27 0;
#X connect 25 0 1 0;
#X connect 26 0 25 0;
#X connect 27 0 26 0;
#X connect 28 0 24 0;
#X restore 154 197 pd randomsweep;
#X obj 51 50 sel 0;
#X msg 94 442 \; pickbeat bang \;;
#X obj 51 6 r tick;
#X msg 94 476 \; picksamples bang \;;
#X msg 95 386 \; settime 8 \;;
#X msg 423 386 \; newnotes bang \;;
#X msg 423 352 \; picknotes bang \;;
#X msg 423 420 \; pickbasenotes bang \;;
#X obj 51 77 spigot 1;
#X obj 140 28 bng 15 250 50 0 empty empty empty 17 7 0 10 -262144 -1
-1;
#X msg 140 48 1;
#X msg 98 129 0;
#X obj 51 30 mod 16;
#X obj 51 99 t b b b;
#X text 218 101 31744;
#X obj 165 130 delay 31744;
#X connect 9 0 12 0;
#X connect 9 1 12 1;
#X connect 11 0 9 0;
#X connect 11 1 9 0;
#X connect 12 0 10 0;
#X connect 12 1 10 1;
#X connect 13 0 1 0;
#X connect 14 0 22 0;
#X connect 16 0 26 0;
#X connect 22 0 27 0;
#X connect 23 0 24 0;
#X connect 24 0 22 1;
#X connect 25 0 22 1;
#X connect 26 0 14 0;
#X connect 27 0 0 0;
#X connect 27 0 13 0;
#X connect 27 1 25 0;
#X connect 27 2 29 0;
#X connect 29 0 24 0;
