#N canvas 130 133 812 387 10;
#X declare -path rj;
#X obj 19 296 expr 127 - $f1;
#X obj 278 307 s-midirange 8;
#X obj 20 180 controller 1 \$1/volume 0 \$2;
#X obj 20 203 controller 9 \$1/pan 256 \$2;
#X obj 20 225 controller 17 \$1/cutoff 256 \$2;
#X obj 20 249 controller 25 \$1/rez 256 \$2;
#X obj 19 317 s \$1/delay;
#X obj 278 327 s \$1/beatshift;
#X obj 279 217 controller 11 \$1/bd-volume 128 \$2;
#X obj 279 195 controller 3 \$1/beat-volume 128 \$2;
#X obj 63 52 rj/e_pan;
#X obj 117 11 r \$1/pan;
#X obj 117 31 / 127;
#X obj 57 81 outlet~;
#X obj 115 81 outlet~;
#X obj 279 240 s \$1/sd-volume;
#X obj 278 264 controller 19 \$1/hh-volume 128 \$2;
#X obj 278 286 controller 27 \$1-xxx/beatshift 128 \$2;
#X obj 368 11 loadbang;
#X msg 368 57 \; \$1/makenew bang \;;
#X obj 368 34 symbol \$1;
#X obj 278 101 controller 10 \$1-xxx/globaloctave 192 \$2;
#X obj 278 121 s-midirange 3;
#X obj 278 142 - 1;
#X obj 278 163 s \$1/globaloctave;
#X obj 573 139 controller 2 \$1-xxx/sticky 96 \$2;
#X obj 573 162 t f f;
#X obj 694 243 s \$1/stickyrate;
#X obj 573 322 s \$1/sticky;
#X obj 573 197 s-midirange 10;
#X obj 573 220 moses 1;
#X msg 573 243 0;
#X obj 619 242 mod 3;
#X obj 619 264 * 4;
#X obj 619 287 + 8;
#X obj 694 220 expr 3 - $f1;
#X obj 694 199 s-midirange 3;
#X obj 35 13 core \$1;
#X obj 19 275 controller 26 \$1-xxx/delay 256 \$2;
#X obj 18 340 controller 18 \$1/feedback 256 \$2;
#X connect 0 0 6 0;
#X connect 1 0 7 0;
#X connect 8 0 15 0;
#X connect 10 0 13 0;
#X connect 10 1 14 0;
#X connect 11 0 12 0;
#X connect 12 0 10 1;
#X connect 17 0 1 0;
#X connect 18 0 20 0;
#X connect 20 0 19 0;
#X connect 21 0 22 0;
#X connect 22 0 23 0;
#X connect 23 0 24 0;
#X connect 25 0 26 0;
#X connect 26 0 29 0;
#X connect 26 1 36 0;
#X connect 29 0 30 0;
#X connect 30 0 31 0;
#X connect 30 1 32 0;
#X connect 31 0 28 0;
#X connect 32 0 33 0;
#X connect 33 0 34 0;
#X connect 34 0 28 0;
#X connect 35 0 27 0;
#X connect 36 0 35 0;
#X connect 37 0 10 0;
#X connect 37 1 10 0;
#X connect 38 0 0 0;
