#N canvas 97 147 1183 449 10;
#X declare -path rj;
#X declare -path .;
#X obj 520 304 s-midirange 8;
#X obj 9 366 controller 17 \$1/cutoff 256 \$2;
#X obj 9 341 controller 25 \$1/rez 256 \$2;
#X obj 520 324 s \$1/beatshift;
#X obj 520 366 controller 11 \$1/bd-volume 128 \$2;
#X obj 43 155 outlet~;
#X obj 520 389 s \$1/sd-volume;
#X obj 520 345 controller 19 \$1/hh-volume 128 \$2;
#X obj 520 283 controller 27 \$1-xxx/beatshift 128 \$2;
#X obj 1059 7 loadbang;
#X obj 1059 30 symbol \$1;
#X obj 219 331 controller 10 \$1-xxx/globaloctave 192 \$2;
#X obj 219 351 s-midirange 3;
#X obj 219 372 - 1;
#X obj 219 393 s \$1/globaloctave;
#X obj 446 64 t f f;
#X obj 567 145 s \$1/stickyrate;
#X obj 446 224 s \$1/sticky;
#X obj 446 99 s-midirange 10;
#X obj 446 122 moses 1;
#X msg 446 145 0;
#X obj 492 144 mod 3;
#X obj 492 166 * 4;
#X obj 492 189 + 8;
#X obj 567 122 expr 3 - $f1;
#X obj 567 101 s-midirange 3;
#X obj 48 23 s \$1/notestream;
#X obj 218 417 controller 2 \$1-xxx/sticky 128 \$2;
#X obj 219 246 controller 18 \$1-xxx/speed 96 \$2;
#X obj 219 267 s-midirange 3;
#X obj 219 288 + 1;
#X obj 219 309 s \$1/speed;
#X msg 1125 7 bang;
#X obj 220 203 controller 26 \$1-xxx/rno 256 \$2;
#X obj 222 154 outlet~;
#N canvas 513 91 450 300 effects 0;
#X obj 15 93 rj/e_pan;
#X obj 68 72 / 127;
#X obj 283 87 rj/e_pan;
#X obj 336 66 / 127;
#X obj 15 11 inlet~;
#X obj 327 15 inlet~;
#X obj 15 269 outlet~;
#X obj 147 258 outlet~;
#X obj 15 170 effects \$1;
#X obj 68 52 r \$1/fx-channel;
#X obj 336 46 r \$1/fx-channel;
#X obj 31 197 r \$1/fx-volume;
#X obj 15 241 *~;
#X obj 31 218 / 127;
#X obj 303 260 outlet~;
#X obj 302 193 *~;
#X obj 317 169 / 127;
#X obj 147 175 *~;
#X obj 162 151 / 127;
#X obj 162 130 r \$1/beat-end-volume;
#X obj 317 148 r \$1/end-volume;
#X connect 0 0 8 0;
#X connect 1 0 0 1;
#X connect 2 1 8 0;
#X connect 3 0 2 1;
#X connect 4 0 0 0;
#X connect 4 0 17 0;
#X connect 5 0 2 0;
#X connect 5 0 15 0;
#X connect 8 0 12 0;
#X connect 9 0 1 0;
#X connect 10 0 3 0;
#X connect 11 0 13 0;
#X connect 12 0 6 0;
#X connect 13 0 12 1;
#X connect 15 0 14 0;
#X connect 16 0 15 1;
#X connect 17 0 7 0;
#X connect 18 0 17 1;
#X connect 19 0 18 0;
#X connect 20 0 16 0;
#X restore 63 44 pd effects;
#X text 187 7 fx:;
#X text 195 22 wet/dry balance \, acid/drums balance \, effect-select
\, fx1 \, fx2;
#X obj 791 356 controller 20 \$1/fx-one 128 \$2;
#X obj 791 331 controller 28 \$1/fx-two 128 \$2;
#X obj 9 390 controller 9 \$1/fx-channel 0 \$2;
#N canvas 0 22 684 471 autocompress 0;
#X obj 239 212 e_platereverb;
#N canvas 226 292 450 120 initverb 0;
#X msg 11 38 predelay 0 \, bandwidth 22050 \, damping 22050 \, decay
0.9 \, input_diffusion1 0.75 \, input_diffusion2 0.625 \, decay_diffusion1
0.7 \, decay_diffusion2 0.5 \, excursion 0.1232;
#X obj 11 13 loadbang;
#X obj 11 87 outlet;
#X connect 0 0 2 0;
#X connect 1 0 0 0;
#X restore 297 187 pd initverb;
#X obj 200 37 hip~ 5;
#X obj 95 143 autocompress~;
#X obj 95 163 *~ 0.3;
#X obj 435 353 outlet~;
#X obj 161 350 outlet~;
#X obj 200 17 inlet~;
#X obj 435 330 s-sigmoid~;
#X obj 502 282 loadbang;
#X msg 502 305 27.1828;
#X obj 161 329 s-sigmoid~;
#X obj 228 281 loadbang;
#X msg 228 304 27.1828;
#X obj 239 241 *~ 0.1;
#X obj 291 242 *~ 0.1;
#X obj 377 38 hip~ 5;
#X obj 377 18 inlet~;
#X obj 458 151 autocompress~;
#X obj 458 171 *~ 0.3;
#X connect 0 0 14 0;
#X connect 0 1 15 0;
#X connect 1 0 0 2;
#X connect 2 0 3 0;
#X connect 2 0 11 0;
#X connect 2 0 0 0;
#X connect 3 0 4 0;
#X connect 4 0 11 0;
#X connect 7 0 2 0;
#X connect 8 0 5 0;
#X connect 9 0 10 0;
#X connect 10 0 8 1;
#X connect 11 0 6 0;
#X connect 12 0 13 0;
#X connect 13 0 11 1;
#X connect 14 0 11 0;
#X connect 15 0 8 0;
#X connect 16 0 18 0;
#X connect 16 0 8 0;
#X connect 16 0 0 1;
#X connect 17 0 16 0;
#X connect 18 0 19 0;
#X connect 19 0 8 0;
#X restore 109 116 pd autocompress;
#X obj 63 71 surround \$1;
#X obj 155 73 surround \$1;
#X obj 235 73 surround \$1;
#X msg 1059 52 \; \$1/makenew bang \; \$1/beat-volume 127 \; \$1/volume
127 \; \$1/surround 127 \;;
#X obj 520 410 controller 3 \$1/beat-end-volume 128 \$2;
#X obj 9 414 controller 1 \$1/end-volume 0 \$2;
#X obj 791 404 controller 4 \$1/fx-volume 1 \$2;
#X obj 791 380 controller 12 \$1/fx-select 256 \$2;
#X obj 25 2 core \$1;
#N canvas 500 90 724 315 fugue 0;
#X obj 12 8 inlet;
#X obj 10 258 s acid1/retrograde;
#X obj 10 235 tgl 15 0 empty empty empty 17 7 0 10 -262144 -1 -1 0
1;
#X floatatom 346 245 5 0 0 0 - - -;
#X msg 159 239 0;
#X msg 191 240 2;
#X msg 224 241 3;
#X msg 256 241 5;
#X msg 288 241 7;
#X floatatom 159 261 5 0 0 0 - - -;
#X obj 159 277 s \$1/rootnoteoffset;
#X obj 346 266 s \$1/noteshift;
#X obj 12 66 / 64;
#X obj 12 29 t f f;
#X obj 12 87 int;
#X obj 12 108 change;
#X obj 161 66 mod 64;
#X obj 161 91 t f f;
#X obj 347 181 / 16;
#X obj 347 202 int;
#X obj 347 223 change;
#X obj 160 114 mod 16;
#X obj 160 156 int;
#X obj 160 177 change;
#X obj 160 135 / 3.2;
#X obj 160 198 sel 0 1 2 3 4;
#X connect 0 0 13 0;
#X connect 2 0 1 0;
#X connect 3 0 11 0;
#X connect 4 0 9 0;
#X connect 5 0 9 0;
#X connect 6 0 9 0;
#X connect 7 0 9 0;
#X connect 8 0 9 0;
#X connect 9 0 10 0;
#X connect 12 0 14 0;
#X connect 13 0 12 0;
#X connect 13 1 16 0;
#X connect 14 0 15 0;
#X connect 15 0 2 0;
#X connect 16 0 17 0;
#X connect 17 0 21 0;
#X connect 17 1 18 0;
#X connect 18 0 19 0;
#X connect 19 0 20 0;
#X connect 20 0 3 0;
#X connect 21 0 24 0;
#X connect 22 0 23 0;
#X connect 23 0 25 0;
#X connect 24 0 22 0;
#X connect 25 0 4 0;
#X connect 25 1 5 0;
#X connect 25 2 6 0;
#X connect 25 3 7 0;
#X connect 25 4 8 0;
#X restore 220 223 pd fugue;
#X connect 0 0 3 0;
#X connect 4 0 6 0;
#X connect 8 0 0 0;
#X connect 9 0 10 0;
#X connect 10 0 45 0;
#X connect 11 0 12 0;
#X connect 12 0 13 0;
#X connect 13 0 14 0;
#X connect 15 0 18 0;
#X connect 15 1 25 0;
#X connect 18 0 19 0;
#X connect 19 0 20 0;
#X connect 19 1 21 0;
#X connect 20 0 17 0;
#X connect 21 0 22 0;
#X connect 22 0 23 0;
#X connect 23 0 17 0;
#X connect 24 0 16 0;
#X connect 25 0 24 0;
#X connect 27 0 15 0;
#X connect 28 0 29 0;
#X connect 29 0 30 0;
#X connect 30 0 31 0;
#X connect 32 0 10 0;
#X connect 33 0 51 0;
#X connect 35 0 42 0;
#X connect 35 1 43 0;
#X connect 35 2 44 0;
#X connect 41 0 5 0;
#X connect 41 1 34 0;
#X connect 42 0 41 0;
#X connect 42 1 41 1;
#X connect 43 0 41 0;
#X connect 43 1 41 1;
#X connect 44 0 41 0;
#X connect 44 1 41 1;
#X connect 50 2 26 0;
#X connect 50 3 35 0;
#X connect 50 4 35 1;
