#N canvas 43 133 1183 436 10;
#X declare -path rj;
#X obj 520 304 s-midirange 8;
#X obj 9 414 controller 1 \$1/volume 0 \$2;
#X obj 9 390 controller 9 \$1/pan 256 \$2;
#X obj 9 366 controller 17 \$1/cutoff 256 \$2;
#X obj 9 341 controller 25 \$1/rez 256 \$2;
#X obj 520 324 s \$1/beatshift;
#X obj 520 366 controller 11 \$1/bd-volume 128 \$2;
#X obj 43 133 rj/e_pan;
#X obj 96 92 r \$1/pan;
#X obj 96 112 / 127;
#X obj 43 155 outlet~;
#X obj 520 389 s \$1/sd-volume;
#X obj 520 345 controller 19 \$1/hh-volume 128 \$2;
#X obj 520 283 controller 27 \$1-xxx/beatshift 128 \$2;
#X obj 1059 7 loadbang;
#X obj 1059 30 symbol \$1;
#X obj 219 331 controller 10 \$1-xxx/globaloctave 192 \$2;
#X obj 219 351 s-midirange 3;
#X obj 219 372 - 1;
#X obj 219 393 s \$1/globaloctave;
#X obj 446 64 t f f;
#X obj 567 145 s \$1/stickyrate;
#X obj 446 224 s \$1/sticky;
#X obj 446 99 s-midirange 10;
#X obj 446 122 moses 1;
#X msg 446 145 0;
#X obj 492 144 mod 3;
#X obj 492 166 * 4;
#X obj 492 189 + 8;
#X obj 567 122 expr 3 - $f1;
#X obj 567 101 s-midirange 3;
#X obj 48 23 s \$1/notestream;
#X obj 218 417 controller 2 \$1-xxx/sticky 128 \$2;
#X obj 219 246 controller 18 \$1-xxx/speed 96 \$2;
#X obj 219 267 s-midirange 3;
#X obj 219 288 + 1;
#X obj 219 309 s \$1/speed;
#X obj 25 2 core \$1;
#X msg 1125 7 bang;
#X obj 520 410 controller 3 \$1/beat-volume 128 \$2;
#X msg 1059 52 \; \$1/makenew bang \; \$1/beat-volume 0 \;;
#X obj 220 181 controller 26 \$1-xxx/rno 256 \$2;
#X obj 220 202 s-midirange 12;
#X obj 220 223 s \$1/rootnoteoffset;
#N canvas 0 22 1200 720 autocompress 0;
#X obj 137 121 e_platereverb;
#N canvas 226 292 450 120 initverb 0;
#X msg 11 38 predelay 0 \, bandwidth 22050 \, damping 22050 \, decay
0.9 \, input_diffusion1 0.75 \, input_diffusion2 0.625 \, decay_diffusion1
0.7 \, decay_diffusion2 0.5 \, excursion 0.1232;
#X obj 11 13 loadbang;
#X obj 11 87 outlet;
#X connect 0 0 2 0;
#X connect 1 0 0 0;
#X restore 224 98 pd initverb;
#X obj 125 28 hip~ 5;
#X obj 16 117 autocompress~;
#X obj 137 150 *~ 0.2;
#X obj 189 151 *~ 0.2;
#X obj 16 137 *~ 0.3;
#X obj 200 294 outlet~;
#X obj 26 291 outlet~;
#X obj 125 8 inlet~;
#X obj 200 271 s-sigmoid~;
#X obj 267 223 loadbang;
#X msg 267 246 27.1828;
#X obj 26 270 s-sigmoid~;
#X obj 93 222 loadbang;
#X msg 93 245 27.1828;
#X connect 0 0 4 0;
#X connect 0 1 5 0;
#X connect 1 0 0 2;
#X connect 2 0 0 0;
#X connect 2 0 3 0;
#X connect 2 0 10 0;
#X connect 2 0 13 0;
#X connect 3 0 6 0;
#X connect 4 0 13 0;
#X connect 5 0 10 0;
#X connect 6 0 10 0;
#X connect 6 0 13 0;
#X connect 9 0 2 0;
#X connect 10 0 7 0;
#X connect 11 0 12 0;
#X connect 12 0 10 1;
#X connect 13 0 8 0;
#X connect 14 0 15 0;
#X connect 15 0 13 1;
#X restore 62 66 pd autocompress;
#X obj 174 132 rj/e_pan;
#X obj 227 91 r \$1/pan;
#X obj 227 111 / 127;
#X obj 232 154 outlet~;
#N canvas 0 22 450 300 effects 0;
#X obj 38 93 rj/e_pan;
#X obj 91 72 / 127;
#X obj 283 87 rj/e_pan;
#X obj 336 66 / 127;
#X obj 28 11 inlet~;
#X obj 327 15 inlet~;
#X obj 70 250 outlet~;
#X obj 276 251 outlet~;
#X obj 65 170 effects \$1;
#X obj 91 52 r \$1/fx-channel;
#X obj 336 46 r \$1/fx-channel;
#X connect 0 0 8 0;
#X connect 0 1 7 0;
#X connect 1 0 0 1;
#X connect 2 0 7 0;
#X connect 2 1 8 0;
#X connect 3 0 2 1;
#X connect 4 0 0 0;
#X connect 5 0 2 0;
#X connect 8 0 6 0;
#X connect 9 0 1 0;
#X connect 10 0 3 0;
#X restore 63 44 pd effects;
#X text 187 7 fx:;
#X text 195 22 wet/dry balance \, acid/drums balance \, effect-select
\, fx1 \, fx2;
#X obj 791 331 controller 28 \$1/fx-two \$2;
#X obj 791 356 controller 20 \$1/fx-one \$2;
#X obj 791 382 controller 12 \$1/fx-channel \$2;
#X obj 791 407 controller 4 \$1/fx-select \$2;
#X connect 0 0 5 0;
#X connect 6 0 11 0;
#X connect 7 0 10 0;
#X connect 8 0 9 0;
#X connect 9 0 7 1;
#X connect 13 0 0 0;
#X connect 14 0 15 0;
#X connect 15 0 40 0;
#X connect 16 0 17 0;
#X connect 17 0 18 0;
#X connect 18 0 19 0;
#X connect 20 0 23 0;
#X connect 20 1 30 0;
#X connect 23 0 24 0;
#X connect 24 0 25 0;
#X connect 24 1 26 0;
#X connect 25 0 22 0;
#X connect 26 0 27 0;
#X connect 27 0 28 0;
#X connect 28 0 22 0;
#X connect 29 0 21 0;
#X connect 30 0 29 0;
#X connect 32 0 20 0;
#X connect 33 0 34 0;
#X connect 34 0 35 0;
#X connect 35 0 36 0;
#X connect 37 2 31 0;
#X connect 37 3 49 0;
#X connect 37 4 49 1;
#X connect 38 0 15 0;
#X connect 41 0 42 0;
#X connect 42 0 43 0;
#X connect 44 0 7 0;
#X connect 44 1 45 0;
#X connect 45 1 48 0;
#X connect 46 0 47 0;
#X connect 47 0 45 1;
#X connect 49 0 44 0;
#X connect 49 1 44 0;
