#N canvas 391 204 450 300 10;
#X obj 13 219 s-midimemory \$3 time;
#X obj 13 271 s \$2;
#X obj 48 271 outlet;
#X obj 13 49 loadbang;
#X obj 13 71 t b b;
#X obj 13 159 +;
#X obj 43 92 \$4;
#X obj 13 92 \$1;
#X msg 13 179 set \$1 1;
#X obj 43 132 * 4;
#X text 10 13 [midi controller number] [send name] [memory length]
[left-or-right 0-or-1];
#X obj 13 244 s-tr-node tune \$2;
#X obj 43 112 mod 2;
#X obj 13 199 s-midictl \$1 xxx-dont-use-me;
#X connect 0 0 11 0;
#X connect 3 0 4 0;
#X connect 4 0 7 0;
#X connect 4 1 6 0;
#X connect 5 0 8 0;
#X connect 6 0 12 0;
#X connect 7 0 5 0;
#X connect 8 0 13 0;
#X connect 9 0 5 1;
#X connect 11 0 1 0;
#X connect 11 0 2 0;
#X connect 12 0 9 0;
#X connect 13 0 0 0;
