#N canvas 144 32 1028 683 10;
#X declare -path rj;
#X declare -path .;
#X text 5 87 shake for a new loop;
#X text 4 20 acid through a filter and then delay unit;
#X text 4 3 Garage Acid Lab \, copyright 2009 Chris McCormick;
#X text 5 233 slidy - how likely portamento is;
#X text 5 250 devilish - how much env mod to put on;
#X text 5 53 touching the beaker adds a breakbeat;
#X text 26 105 seededrandomised parameters:;
#X text 47 123 select notes;
#X text 47 138 which breakbeat;
#X text 46 168 accent positions;
#X text 47 184 slide positions;
#X text 47 200 square or saw;
#X obj 609 125 s_blsaw;
#X obj 908 5 declare -path rj;
#X obj 690 125 s_blsquare;
#X text 4 330 tilting - filter cutoff + delay length;
#X text 354 155 mic comes into effects chain too;
#N canvas 134 120 460 631 sequencer 0;
#X obj 195 604 outlet envelope;
#X obj 26 592 mtof;
#X obj 26 611 outlet;
#N canvas 375 304 454 375 \$1/notes 0;
#X obj 18 13 inlet;
#X obj 18 349 outlet;
#X obj 50 141 tabread \$1/notes;
#X obj 18 52 t f f;
#X obj 324 155 * 12;
#X obj 51 327 +;
#X obj 18 33 mod 16;
#X obj 51 305 + 52;
#X obj 18 121 sel 0;
#X msg 18 143 0;
#X obj 324 134 tabread \$1/octave;
#X obj 51 242 +;
#X obj 51 283 mod 12;
#X obj 18 98 tabread \$1/sequence;
#X obj 82 205 - 1;
#X obj 50 183 sel 0;
#X msg 50 205 0;
#X obj 113 205 r \$1/rootnote;
#X obj 51 262 + 0;
#X obj 110 232 r \$1/rootnoteoffset;
#X connect 0 0 6 0;
#X connect 2 0 15 0;
#X connect 3 0 13 0;
#X connect 3 1 10 0;
#X connect 4 0 5 1;
#X connect 5 0 1 0;
#X connect 6 0 3 0;
#X connect 7 0 5 0;
#X connect 8 0 9 0;
#X connect 8 1 2 0;
#X connect 9 0 1 0;
#X connect 10 0 4 0;
#X connect 11 0 18 0;
#X connect 12 0 7 0;
#X connect 13 0 8 0;
#X connect 14 0 11 0;
#X connect 15 0 16 0;
#X connect 15 1 14 0;
#X connect 16 0 1 0;
#X connect 17 0 11 1;
#X connect 18 0 12 0;
#X connect 19 0 18 1;
#X restore 26 477 pd \$1/notes;
#X obj 26 498 t f f;
#X obj 195 557 > 0;
#N canvas 375 304 450 300 slide 0;
#X obj 19 13 inlet;
#X obj 19 33 mod 16;
#X obj 19 77 outlet;
#X obj 19 55 tabread \$1/slide;
#X connect 0 0 1 0;
#X connect 1 0 3 0;
#X connect 3 0 2 0;
#X restore 248 525 pd slide;
#X obj 196 582 pack f f;
#X obj 26 520 moses 1;
#X obj 26 453 t f f f;
#N canvas 375 304 450 300 accent 0;
#X obj 19 13 inlet;
#X obj 19 33 mod 16;
#X obj 19 77 outlet;
#X obj 19 55 tabread \$1/accent;
#X connect 0 0 1 0;
#X connect 1 0 3 0;
#X connect 3 0 2 0;
#X restore 332 525 pd accent;
#X obj 193 60 seededrandom 10;
#X obj 193 79 sel 0;
#X obj 55 140 pipe;
#X msg 226 102 0;
#X msg 193 40 bang;
#X obj 25 35 t f f;
#X obj 56 55 mod 2;
#X obj 25 76 swap;
#X obj 25 117 route 0 1;
#X obj 25 96 pack f f;
#X msg 192 102 30;
#X obj 332 604 outlet \$1/accent;
#X obj 25 9 r \$1/tick;
#X obj 121 362 s \$0/tick;
#X obj 193 19 r \$1/makenew;
#X obj 361 251 inlet;
#X obj 90 520 * 12;
#X obj 72 541 + 0;
#X obj 120 191 == 0;
#X obj 26 320 spigot 1;
#X obj 58 269 f;
#X obj 120 146 r \$1/sticky;
#X obj 216 146 r \$1/stickyrate;
#X obj 26 164 t f f;
#X obj 58 184 / 1;
#X obj 58 206 int;
#X obj 58 228 change;
#X msg 58 249 bang;
#X obj 120 168 t f f f;
#X obj 166 191 != 0;
#X obj 58 296 spigot 0;
#X obj 112 19 r \$1/swing;
#X obj 78 611 s \$0/notestream;
#X obj 72 562 t f f;
#X obj 26 390 / 1;
#X obj 44 365 r \$1/speed;
#X obj 26 411 int;
#X obj 26 432 change;
#X obj 26 340 t f f;
#X connect 1 0 2 0;
#X connect 3 0 4 0;
#X connect 4 0 8 0;
#X connect 4 1 5 0;
#X connect 5 0 7 0;
#X connect 6 0 7 1;
#X connect 7 0 0 0;
#X connect 8 1 28 0;
#X connect 9 0 3 0;
#X connect 9 1 6 0;
#X connect 9 2 10 0;
#X connect 10 0 22 0;
#X connect 11 0 12 0;
#X connect 12 0 21 0;
#X connect 12 1 14 0;
#X connect 13 0 34 0;
#X connect 14 0 13 1;
#X connect 15 0 11 0;
#X connect 16 0 18 0;
#X connect 16 1 17 0;
#X connect 17 0 18 1;
#X connect 18 0 20 0;
#X connect 18 1 20 1;
#X connect 19 0 34 0;
#X connect 19 1 13 0;
#X connect 20 0 19 0;
#X connect 21 0 13 1;
#X connect 23 0 16 0;
#X connect 25 0 15 0;
#X connect 26 0 27 0;
#X connect 27 0 28 1;
#X connect 28 0 44 0;
#X connect 29 0 30 1;
#X connect 30 0 49 0;
#X connect 31 0 41 0;
#X connect 32 0 39 0;
#X connect 33 0 35 1;
#X connect 34 0 30 0;
#X connect 34 1 35 0;
#X connect 35 0 36 0;
#X connect 36 0 37 0;
#X connect 37 0 38 0;
#X connect 38 0 31 0;
#X connect 39 0 29 0;
#X connect 39 1 31 1;
#X connect 39 2 40 0;
#X connect 40 0 41 1;
#X connect 41 0 49 0;
#X connect 42 0 13 1;
#X connect 44 0 1 0;
#X connect 44 1 43 0;
#X connect 45 0 47 0;
#X connect 46 0 45 1;
#X connect 47 0 48 0;
#X connect 48 0 9 0;
#X connect 49 0 45 0;
#X connect 49 1 24 0;
#X restore 610 33 pd sequencer;
#X msg 739 80 0.5;
#X obj 739 60 loadbang;
#N canvas 40 50 1200 628 breakbeats 0;
#X obj 280 -18 inlet;
#N canvas 0 22 450 300 panns 0;
#X obj 47 140 *~ 1;
#X obj 176 140 e_pan 0.7;
#X obj 101 137 e_pan 0.3;
#X obj 47 91 inlet~;
#X obj 102 92 inlet~;
#X obj 175 91 inlet~;
#X obj 156 240 outlet~;
#X obj 64 240 outlet~;
#X obj 271 141 e_pan 0.5;
#X obj 273 92 inlet~;
#X connect 0 0 6 0;
#X connect 0 0 7 0;
#X connect 1 0 7 0;
#X connect 1 1 6 0;
#X connect 2 0 7 0;
#X connect 2 1 6 0;
#X connect 3 0 0 0;
#X connect 4 0 2 0;
#X connect 5 0 1 0;
#X connect 8 0 7 0;
#X connect 8 1 6 0;
#X connect 9 0 8 0;
#X restore 190 351 pd panns;
#X obj 160 429 outlet~;
#X obj 262 435 outlet~;
#N canvas 568 245 450 300 (subpatch) 0;
#X array \$1/bd-prob 16 float 3;
#A 0 1 0.1 0.5 0.1 0.05 0.1 0.01 0.1 0.8 0.1 0.5 0.1 0.05 0.01 0.01
0.2;
#X coords 0 1 15 -1 50 25 1;
#X restore 1129 267 graph;
#N canvas 0 22 450 300 (subpatch) 0;
#X array \$1/sd-prob 16 float 3;
#A 0 0 0.05 0.05 0.05 0.95 0 0 0.2 0 0.05 0 0 0.95 0 0 0.1;
#X coords 0 1 15 -1 50 25 1;
#X restore 1129 310 graph;
#N canvas 0 22 450 300 (subpatch) 0;
#X array \$1/hh-prob 16 float 3;
#A 0 0.95 0.75 0.95 0.75 0.95 0.75 0.95 0.75 0.95 0.75 0.95 0.75 0.95
0.75 0.95 0.75;
#X coords 0 1 15 -1 50 25 1;
#X restore 1129 353 graph;
#X obj 681 188 t b b;
#X obj 713 230 seededrandom 2;
#X obj 713 250 + 1;
#X obj 713 270 * 8;
#X obj 136 146 *~ 2;
#X obj 280 171 *~ 0.5;
#X obj 164 200 *~;
#X obj 144 32 t f f;
#X obj 222 140 mod 2;
#X obj 223 161 + 0;
#X obj 227 57 + 1;
#X obj 223 182 * 2;
#X obj 222 202 + 0.5;
#X obj 144 13 +;
#X obj 280 47 +;
#X obj 13 13 +;
#X obj 950 -26 loadbang;
#X obj 759 67 seededrandom 2;
#X obj 759 88 sel 0 1;
#X text 847 319 hip hop style;
#X obj 33 198 *~;
#X obj 13 33 t f f;
#X obj 91 138 mod 2;
#X obj 92 159 + 0;
#X obj 96 51 + 1;
#X obj 92 180 * 2;
#X obj 91 200 + 0.5;
#X obj 638 421 t b b;
#X text 686 419 big beat base style;
#X obj 658 92 sel 0;
#X obj 658 71 seededrandom 3;
#N canvas 297 106 470 445 make-fill 0;
#X obj 18 42 inlet;
#X text 13 4 fill happens in the second half of the big beat before
the second snare;
#X obj 18 63 t b b;
#X obj 18 106 until;
#X obj 18 214 seededrandom 5;
#X obj 18 234 sel 0;
#X obj 70 151 f;
#X obj 100 151 + 1;
#X msg 65 85 0;
#X obj 18 126 t b b;
#X msg 50 254 bang;
#X text 156 170 consecutively less likely snare/bass;
#X obj 50 274 seededrandom 3;
#X text 130 269 snare or bass?;
#X obj 50 294 sel 0;
#X obj 70 172 t f f;
#X obj 81 341 f;
#X obj 50 317 f;
#X msg 81 317 bang;
#X obj 101 194 * 2;
#X obj 70 194 + 2;
#X msg 18 85 4;
#X obj 101 214 + 5;
#X msg 192 397 \; \$2/sd-loop \$1 1;
#X msg 21 408 \; \$2/bd-loop \$1 1;
#X obj 192 375 fsdollar \$1;
#X obj 21 386 fsdollar \$1;
#X connect 0 0 2 0;
#X connect 2 0 21 0;
#X connect 2 1 8 0;
#X connect 3 0 9 0;
#X connect 4 0 5 0;
#X connect 5 1 10 0;
#X connect 6 0 7 0;
#X connect 6 0 15 0;
#X connect 7 0 6 1;
#X connect 8 0 6 1;
#X connect 9 0 4 0;
#X connect 9 1 6 0;
#X connect 10 0 12 0;
#X connect 12 0 14 0;
#X connect 14 0 17 0;
#X connect 14 1 18 0;
#X connect 15 0 20 0;
#X connect 15 1 19 0;
#X connect 16 0 25 0;
#X connect 17 0 26 0;
#X connect 18 0 16 0;
#X connect 19 0 22 0;
#X connect 20 0 4 1;
#X connect 21 0 3 0;
#X connect 22 0 16 1;
#X connect 22 0 17 1;
#X connect 25 0 23 0;
#X connect 26 0 24 0;
#X restore 512 524 pd make-fill;
#X text 393 480 do we want fill?;
#X obj 514 501 sel 0;
#X obj 514 481 seededrandom 5;
#X obj 398 41 +;
#X obj 408 139 +~;
#N canvas 618 100 627 510 make-cowbell 0;
#X obj 8 8 inlet;
#X obj 8 29 t b b;
#N canvas 514 124 450 300 trillmaker 0;
#X obj 7 10 inlet;
#X obj 9 95 seededrandom 7;
#X text 21 117 length;
#X text 198 114 offset;
#X obj 82 95 seededrandom 16;
#X obj 49 224 mod 16;
#X obj 49 200 +;
#X obj 49 179 f;
#X obj 79 179 + 1;
#X obj 8 32 t b b b;
#X msg 131 128 0;
#X obj 48 156 until;
#X obj 49 246 fsdollar \$1;
#X msg 49 269 \; \$2/cowbell-loop \$1 1 \;;
#X connect 0 0 9 0;
#X connect 1 0 11 0;
#X connect 4 0 6 1;
#X connect 5 0 12 0;
#X connect 6 0 5 0;
#X connect 7 0 8 0;
#X connect 7 0 6 0;
#X connect 8 0 7 1;
#X connect 9 0 1 0;
#X connect 9 1 4 0;
#X connect 9 2 10 0;
#X connect 10 0 7 1;
#X connect 11 0 7 0;
#X connect 12 0 13 0;
#X restore 8 461 pd trillmaker;
#X obj 8 61 seededrandom 15;
#X obj 8 105 sel 0 1 2 3 4;
#X obj 193 46 symbol \$1;
#X msg 193 66 \; \$1/cowbell-offset 0 \; \$1/cowbell-loop const 0 \;
;
#X obj 96 141 symbol \$1;
#X obj 96 210 symbol \$1;
#X obj 97 288 symbol \$1;
#X obj 97 358 symbol \$1;
#X msg 96 230 \; \$1/cowbell-loop 0 0 0 0 0 0 0 1 0 0 0 0 0 0 0 1 0
\;;
#X msg 96 161 \; \$1/cowbell-loop 0 0 0 0 0 1 0 0 0 0 0 0 0 1 0 0 0
\;;
#X msg 97 308 \; \$1/cowbell-loop 0 0 0 1 0 0 0 1 0 0 0 1 0 0 0 1 0
\;;
#X msg 97 378 \; \$1/cowbell-loop 0 0 0 0 0 0 0 1 0 0 1 0 0 1 0 0 0
0 0 \;;
#X connect 0 0 1 0;
#X connect 1 0 3 0;
#X connect 1 1 5 0;
#X connect 3 0 4 0;
#X connect 4 0 2 0;
#X connect 4 1 10 0;
#X connect 4 2 9 0;
#X connect 4 3 8 0;
#X connect 4 4 7 0;
#X connect 5 0 6 0;
#X connect 7 0 12 0;
#X connect 8 0 11 0;
#X connect 9 0 13 0;
#X connect 10 0 14 0;
#X restore 816 44 pd make-cowbell;
#X obj 405 66 +;
#N canvas 110 305 450 300 cowbell-play 0;
#X obj 11 252 outlet~;
#X obj 314 11 samplerate~ 44100;
#X obj 12 200 vline~;
#X msg 12 179 0 \, 44100 680;
#X obj 12 157 r \$1/cowbell-shot;
#X obj 11 229 tabread4~ cowbell-1;
#X connect 2 0 5 0;
#X connect 3 0 2 0;
#X connect 4 0 3 0;
#X connect 5 0 0 0;
#X restore 408 116 pd cowbell-play;
#X obj 636 36 t b b b b;
#X obj 407 168 *~ 0.75;
#X obj 249 308 *~ 1;
#X obj 274 266 r \$1/hh-volume;
#X obj 379 309 *~ 1;
#X obj 274 287 / 127;
#X obj 404 266 r \$1/hh-volume;
#X obj 404 287 / 127;
#X obj 151 269 *~ 1;
#X obj 176 248 / 127;
#X obj 26 275 *~ 1;
#X obj 51 254 / 127;
#X obj 51 233 r \$1/bd-volume;
#X obj 176 227 r \$1/sd-volume;
#X obj 144 -13 r \$0/tick;
#X obj 13 -8 r \$0/tick;
#X obj 280 26 r \$0/tick;
#X obj 398 10 r \$0/tick;
#X obj 636 13 r \$1/makenew;
#X obj 680 -29 r \$1/makenew;
#X obj 582 -13 r \$1/pickbeat;
#X obj 781 -29 r \$1/picksamples;
#X obj 950 -5 symbol \$1;
#X msg 950 23 \; \$1/bd-samples 8 \; \$1/sd-samples 8 \; \$1/hh-samples
8 \;;
#X obj 670 445 symbol \$1;
#X msg 670 467 \; \$1/loop-length 16 \; \$1/bd-prob 0 0.99 0.1 0.4
0.01 0.01 0.01 0.01 0.01 0.01 0.01 0.01 0.01 0.01 0.01 0.01 \; \$1/sd-prob
0 0.01 0.01 0.01 0.01 0.99 0.01 0.01 0.01 0.01 0.01 0.01 0.01 0.99
0.01 0.01 0.01 \;;
#X obj 936 566 makeloop \$1/sd \$1;
#X obj 1066 566 makeloop \$1/hh \$1;
#X obj 806 566 makeloop \$1/bd \$1;
#X msg 713 312 \; \$2/loop-length \$1 \;;
#X obj 623 294 symbol \$1;
#X msg 682 347 \; \$1/bd-prob 0 1 0.1 0.5 0.1 0.05 0.1 0.01 0.1 0.8
0.1 0.5 0.1 0.05 0.01 0.01 0.2 \; \$1/sd-prob 0 0 0.05 0.05 0.05 0.95
0 0 0.2 0 0.05 0 0 0.95 0 0 0.1 \;;
#X obj 505 160 symbol \$1;
#X msg 505 181 \; \$1/bd-makeloop bang \; \$1/sd-makeloop bang \; \$1/hh-makeloop
bang \;;
#X obj 713 293 fsdollar \$1;
#X msg 782 128 \; \$1/hh-prob 0 0.95 0.05 0.95 0.05 0.95 0.1 0.95 0.1
0.95 0.05 0.95 0.05 0.95 0.05 0.95 0.05 \;;
#X msg 759 181 \; \$1/hh-prob 0 0.95 0.75 0.95 0.75 0.95 0.75 0.95
0.75 0.95 0.75 0.95 0.75 0.95 0.75 0.95 0.75 \;;
#X obj 782 108 symbol \$1;
#X obj 710 123 symbol \$1;
#X obj 680 -8 s \$1/choose-new-samples;
#X obj 434 39 r \$1/cowbell-offset;
#X obj 280 150 sample hh \$1;
#X obj 136 114 sample sd \$1;
#X obj 9 110 sample bd \$1;
#X obj 404 89 sample-select \$1/cowbell;
#X obj 8 86 sample-select \$1/bd;
#X obj 136 92 sample-select \$1/sd;
#X obj 280 128 sample-select \$1/hh;
#X connect 0 0 21 1;
#X connect 0 0 20 1;
#X connect 0 0 22 1;
#X connect 0 0 42 1;
#X connect 1 0 2 0;
#X connect 1 1 3 0;
#X connect 7 0 77 0;
#X connect 7 1 8 0;
#X connect 8 0 9 0;
#X connect 9 0 10 0;
#X connect 10 0 81 0;
#X connect 11 0 13 0;
#X connect 12 0 49 0;
#X connect 13 0 55 0;
#X connect 14 0 93 0;
#X connect 14 1 17 0;
#X connect 15 0 16 0;
#X connect 16 0 18 0;
#X connect 17 0 15 0;
#X connect 18 0 19 0;
#X connect 19 0 13 1;
#X connect 20 0 14 0;
#X connect 21 0 94 0;
#X connect 22 0 28 0;
#X connect 23 0 69 0;
#X connect 24 0 25 0;
#X connect 25 0 85 0;
#X connect 25 1 84 0;
#X connect 27 0 57 0;
#X connect 28 0 92 0;
#X connect 28 1 31 0;
#X connect 29 0 30 0;
#X connect 30 0 32 0;
#X connect 31 0 29 0;
#X connect 32 0 33 0;
#X connect 33 0 27 1;
#X connect 34 0 41 0;
#X connect 34 1 71 0;
#X connect 36 0 7 0;
#X connect 36 1 34 0;
#X connect 37 0 36 0;
#X connect 40 1 38 0;
#X connect 41 0 40 0;
#X connect 42 0 45 0;
#X connect 43 0 48 0;
#X connect 45 0 91 0;
#X connect 46 0 43 0;
#X connect 47 0 79 0;
#X connect 47 1 37 0;
#X connect 47 2 24 0;
#X connect 47 3 44 0;
#X connect 48 0 51 0;
#X connect 49 0 1 2;
#X connect 50 0 52 0;
#X connect 51 0 1 3;
#X connect 52 0 49 1;
#X connect 53 0 54 0;
#X connect 54 0 51 1;
#X connect 55 0 1 1;
#X connect 56 0 55 1;
#X connect 57 0 1 0;
#X connect 58 0 57 1;
#X connect 59 0 58 0;
#X connect 60 0 56 0;
#X connect 61 0 20 0;
#X connect 62 0 22 0;
#X connect 63 0 21 0;
#X connect 64 0 42 0;
#X connect 65 0 47 0;
#X connect 66 0 86 0;
#X connect 67 0 47 0;
#X connect 68 0 86 0;
#X connect 69 0 70 0;
#X connect 71 0 72 0;
#X connect 77 0 78 0;
#X connect 79 0 80 0;
#X connect 81 0 76 0;
#X connect 84 0 82 0;
#X connect 85 0 83 0;
#X connect 87 0 45 1;
#X connect 88 0 12 0;
#X connect 89 0 11 0;
#X connect 90 0 27 0;
#X restore 508 393 pd breakbeats;
#X obj 623 303 vcf~;
#X obj 641 449 vd~ \$0-delayunit;
#X text 5 306 speed?;
#X text 231 400 breakbeats don't go through the filter;
#X obj 623 495 +~;
#X obj 635 566 e_platereverb;
#N canvas 226 292 450 120 initverb 0;
#X msg 11 38 predelay 0 \, bandwidth 22050 \, damping 22050 \, decay
0.9 \, input_diffusion1 0.75 \, input_diffusion2 0.625 \, decay_diffusion1
0.7 \, decay_diffusion2 0.5 \, excursion 0.1232;
#X obj 11 13 loadbang;
#X obj 11 87 outlet;
#X connect 0 0 2 0;
#X connect 1 0 0 0;
#X restore 722 543 pd initverb;
#X obj 648 283 t f f;
#X obj 623 327 *~;
#X obj 680 303 *~ 0.6;
#X obj 554 226 line~;
#X msg 554 203 \$1 5;
#N canvas 106 293 450 300 envelope 0;
#X obj 12 10 inlet;
#X obj 12 275 outlet~;
#X obj 12 242 vline~;
#X obj 340 17 inlet decay;
#X obj 220 242 line;
#X obj 220 270 outlet;
#X obj 12 53 unpack f f;
#X obj 79 74 * 0.5;
#X obj 12 129 150;
#X obj 13 75 sel 1;
#X obj 12 149 pack f f;
#X obj 12 174 t a a;
#X msg 13 210 1 7 \, \$2 \$1 7;
#X msg 219 217 1 \, \$2 \$1;
#X obj 12 31 t a a;
#X obj 163 54 ||;
#X obj 164 108 sel 0;
#X msg 164 129 0 7;
#X connect 0 0 14 0;
#X connect 2 0 1 0;
#X connect 3 0 8 1;
#X connect 4 0 5 0;
#X connect 6 0 9 0;
#X connect 6 1 7 0;
#X connect 7 0 10 1;
#X connect 8 0 10 0;
#X connect 9 0 8 0;
#X connect 10 0 11 0;
#X connect 11 0 12 0;
#X connect 11 1 13 0;
#X connect 12 0 2 0;
#X connect 13 0 4 0;
#X connect 14 0 6 0;
#X connect 14 1 15 0;
#X connect 15 0 16 0;
#X connect 16 0 17 0;
#X connect 17 0 2 0;
#X connect 17 0 4 0;
#X restore 672 177 pd envelope;
#X text 5 268 busy - how often notes happen;
#X obj 658 514 delwrite~ \$0-delayunit 2000;
#X obj 623 215 *~;
#X obj 816 177 r \$0-envmod;
#X obj 747 227 * 5;
#X obj 747 251 +;
#X text 861 209 base rez;
#N canvas 0 22 450 300 (subpatch) 0;
#X array \$1/slide 16 float 2;
#X coords 0 1 15 0 50 25 1;
#X restore 263 51 graph;
#N canvas 0 22 450 300 (subpatch) 0;
#X array \$1/accent 16 float 2;
#X coords 0 1 15 0 50 25 1;
#X restore 325 51 graph;
#N canvas 0 22 450 300 (subpatch) 0;
#X array \$1/octave 17 float 2;
#X coords 0 1 15 -1 50 25 1;
#X restore 393 51 graph;
#X text 46 153 how snappy - how quickly envelope decays;
#N canvas 0 22 450 300 (subpatch) 0;
#X array \$1/sequence 16 float 2;
#X coords 0 4 16 0 50 25 1;
#X restore 462 50 graph;
#X obj 672 221 *~ 12;
#X obj 635 258 mtof~;
#X msg 130 380 bang;
#N canvas 46 156 450 300 portamento 0;
#X obj 11 9 inlet;
#X obj 85 10 inlet;
#X obj 85 31 unpack f f;
#X obj 11 121 line~;
#X obj 11 145 outlet~;
#X obj 240 8 inlet decay;
#X obj 11 101 pack f f;
#X obj 177 32 / 2;
#X obj 152 52 * 75;
#X connect 0 0 6 0;
#X connect 1 0 2 0;
#X connect 2 1 8 0;
#X connect 3 0 4 0;
#X connect 5 0 7 0;
#X connect 6 0 3 0;
#X connect 7 0 8 1;
#X connect 8 0 6 1;
#X restore 609 71 pd portamento;
#X obj 623 533 hip~ 5;
#X obj 623 347 hip~ 5;
#X obj 815 75 seededrandom 200;
#X obj 815 115 + 1;
#X obj 815 95 + 50;
#X obj 416 235 hip~ 5;
#X obj 766 176 + 1;
#X obj 766 199 * 5;
#X obj 703 203 * 12;
#N canvas 0 22 450 300 quantize-delay 0;
#X obj 9 5 inlet;
#X obj 10 276 outlet;
#X obj 9 31 mtof;
#X connect 0 0 2 0;
#X connect 2 0 1 0;
#X restore 641 430 pd quantize-delay;
#X text 171 510 beat delay;
#X text 38 561 beat offset;
#X text 171 524 rez;
#X text 146 493 knobs:;
#X text 260 579 delay feedback;
#N canvas 0 22 450 300 squaresaw 0;
#X obj 28 250 outlet~;
#X obj 177 49 seededrandom 2;
#X obj 70 126 *~;
#X obj 185 127 *~;
#X obj 213 72 != 0;
#X obj 167 73 == 0;
#X obj 70 17 inlet~;
#X obj 249 244 outlet~;
#X obj 177 19 r \$1/makenew;
#X obj 261 19 r \$1/pickwave;
#X connect 1 0 4 0;
#X connect 1 0 5 0;
#X connect 2 0 0 0;
#X connect 3 0 7 0;
#X connect 4 0 3 1;
#X connect 5 0 2 1;
#X connect 6 0 2 0;
#X connect 6 0 3 0;
#X connect 8 0 1 0;
#X connect 9 0 1 0;
#X restore 609 101 pd squaresaw;
#X text 4 513 buttons:;
#X text 38 531 bring beat;
#X text 38 546 new ingredients;
#X text 105 600 how busy? (table with val for each not + prob knob)
;
#X text 831 239 tilt;
#X text 742 275 upsidedown = 100 \, left = 30 \, right = 2;
#X text 412 325 buttons shift;
#X text 820 414 tilt forward = feedback;
#X obj 623 368 *~ 0.25;
#X obj 514 562 autocompress~;
#X obj 635 595 *~ 0.2;
#X obj 685 604 *~ 0.2;
#X obj 514 582 *~ 0.3;
#X text 204 465 TODO: laying it flat stops all sound;
#X obj 779 436 / 127;
#X obj 641 475 *~ 0;
#X obj 688 657 outlet~;
#X obj 542 656 outlet~;
#X obj 416 176 inlet~;
#N canvas 257 183 443 446 GENERATE 0;
#X msg 18 -7 bang;
#N canvas 188 252 446 334 pick-octaveslide 0;
#X obj 30 143 until;
#X msg 30 121 16;
#X obj 11 12 inlet;
#X obj 11 33 t b b;
#X obj 51 97 seededrandom 100;
#X text 118 77 how slidy?;
#X obj 30 164 seededrandom 100;
#X obj 30 187 >;
#X obj 31 217 list append;
#X obj 119 217 t l;
#X obj 11 75 t b b b b;
#X obj 12 244 list;
#X obj 255 119 until;
#X msg 255 97 16;
#X obj 255 140 seededrandom 100;
#X obj 255 163 >;
#X obj 261 245 list append;
#X obj 349 241 t l;
#X obj 236 51 t b b b b;
#X obj 237 265 list;
#X text 345 55 how octavy?;
#X obj 237 284 filltable \$1/octave;
#X obj 12 273 filltable \$1/slide;
#X obj 80 26 r \$1/pickslide;
#X obj 281 27 r \$1/pickoctave;
#X obj 255 183 sel 0 1;
#X obj 278 203 seededrandom 3;
#X obj 278 224 - 1;
#X msg 246 204 0;
#X obj 276 73 seededrandom 50;
#X connect 0 0 6 0;
#X connect 1 0 0 0;
#X connect 2 0 3 0;
#X connect 3 0 10 0;
#X connect 3 1 18 0;
#X connect 4 0 7 1;
#X connect 6 0 7 0;
#X connect 7 0 8 0;
#X connect 8 0 9 0;
#X connect 8 0 11 1;
#X connect 9 0 8 1;
#X connect 10 0 11 0;
#X connect 10 1 1 0;
#X connect 10 2 4 0;
#X connect 10 3 8 1;
#X connect 11 0 22 0;
#X connect 12 0 14 0;
#X connect 13 0 12 0;
#X connect 14 0 15 0;
#X connect 15 0 25 0;
#X connect 16 0 17 0;
#X connect 16 0 19 1;
#X connect 17 0 16 1;
#X connect 18 0 19 0;
#X connect 18 1 13 0;
#X connect 18 2 29 0;
#X connect 18 3 16 1;
#X connect 19 0 21 0;
#X connect 23 0 10 0;
#X connect 24 0 18 0;
#X connect 25 0 28 0;
#X connect 25 1 26 0;
#X connect 26 0 27 0;
#X connect 27 0 16 0;
#X connect 28 0 16 0;
#X connect 29 0 15 1;
#X restore 29 309 pd pick-octaveslide;
#N canvas 311 172 446 438 pick-accent 0;
#X obj 11 12 inlet;
#X obj 57 226 until;
#X text 125 164 how many accents?;
#X obj 57 249 seededrandom 16;
#X obj 11 163 seededrandom 9;
#X obj 11 183 moses 3;
#X obj 57 203 - 2;
#X obj 31 38 r pickaccent;
#X obj 11 75 t b b;
#X msg 42 126 \; \$1/accent const 0 \;;
#X obj 43 99 symbol \$1;
#X obj 57 271 t f b;
#X obj 57 328 pack f s;
#X obj 110 306 symbol \$1;
#X msg 57 353 \; \$2/accent \$1 1 \;;
#X connect 0 0 8 0;
#X connect 1 0 3 0;
#X connect 3 0 11 0;
#X connect 4 0 5 0;
#X connect 5 1 6 0;
#X connect 6 0 1 0;
#X connect 7 0 8 0;
#X connect 8 0 4 0;
#X connect 8 1 10 0;
#X connect 10 0 9 0;
#X connect 11 0 12 0;
#X connect 11 1 13 0;
#X connect 12 0 14 0;
#X connect 13 0 12 1;
#X restore 30 362 pd pick-accent;
#X obj 18 -29 r \$1/makenew;
#X obj 29 284 r \$1/makenew;
#X obj 30 337 r \$1/makenew;
#X obj 18 28 t b b b;
#N canvas 610 249 498 398 \$1/picknotes 0;
#X obj 8 10 inlet;
#X text 82 37 first pick a four-note sequence;
#X obj 31 83 until;
#X msg 31 62 4;
#X obj 31 104 seededrandom 4;
#X text 95 121 one in four change of having a zero;
#X obj 63 211 list append;
#X msg 31 146 0;
#X obj 31 124 sel 0;
#X msg 63 146 bang;
#X obj 63 189 + 1;
#X obj 9 238 list;
#N canvas 0 22 450 300 weight-notes 0;
#X obj 5 10 inlet;
#X obj 5 35 seededrandom 3;
#X obj 5 59 sel 0 1 2;
#X obj 169 90 seededrandom 12;
#X obj 40 90 seededrandom 2;
#X obj 40 111 sel 0 1;
#X msg 40 134 3;
#X msg 76 135 7;
#X msg 5 89 5;
#X obj 70 277 outlet;
#X text 48 6 weight 5ths highest \, 3rds and 7ths next \, everything
else lowest;
#X connect 0 0 1 0;
#X connect 1 0 2 0;
#X connect 2 0 8 0;
#X connect 2 1 4 0;
#X connect 2 2 3 0;
#X connect 3 0 9 0;
#X connect 4 0 5 0;
#X connect 5 0 6 0;
#X connect 5 1 7 0;
#X connect 6 0 9 0;
#X connect 7 0 9 0;
#X connect 8 0 9 0;
#X restore 63 167 pd weight-notes;
#X obj 9 285 outlet;
#X obj 8 37 t b b b b;
#X obj 151 211 t l;
#X connect 0 0 14 0;
#X connect 2 0 4 0;
#X connect 3 0 2 0;
#X connect 4 0 8 0;
#X connect 6 0 11 1;
#X connect 6 0 15 0;
#X connect 7 0 6 0;
#X connect 8 0 7 0;
#X connect 8 1 9 0;
#X connect 9 0 12 0;
#X connect 10 0 6 0;
#X connect 11 0 13 0;
#X connect 12 0 10 0;
#X connect 14 0 11 0;
#X connect 14 1 3 0;
#X connect 14 2 6 1;
#X connect 15 0 6 1;
#X restore 178 139 pd \$1/picknotes;
#N canvas 775 22 479 711 \$1/picksequence 0;
#X obj 13 15 inlet newnotes;
#X obj 12 481 outlet;
#X text 108 149 for 16 beats play through the four notes;
#X obj 36 151 until;
#X obj 36 175 f;
#X obj 68 175 + 1;
#X obj 37 373 int;
#X msg 86 132 0;
#X obj 179 223 seededrandom 3;
#X obj 178 265 + 1;
#X obj 179 243 t f f;
#X obj 12 460 list;
#X obj 179 179 t b b b;
#X obj 281 250 f;
#X obj 299 224 + 1;
#X obj 281 277 sel;
#X msg 202 201 0;
#X obj 37 435 list append;
#X obj 126 436 t l;
#X obj 37 343 / 1;
#X text 182 163 this block makes repeating chunks;
#X obj 178 309 seededrandom;
#X obj 178 330 sel 0 1;
#X obj 36 69 t b b b b b b;
#X msg 124 111 1;
#X obj 177 286 t b f;
#X obj 178 352 f;
#X obj 13 35 t b b;
#X obj 37 393 mod 4;
#X obj 36 89 seededrandom 8;
#X text 142 89 <- between 16 and 24 beats (first 16 are used);
#X obj 36 294 +;
#X obj 36 195 t f b b;
#X obj 59 234 seededrandom 16;
#X obj 36 110 + 16;
#X connect 0 0 27 0;
#X connect 3 0 4 0;
#X connect 4 0 5 0;
#X connect 4 0 32 0;
#X connect 5 0 4 1;
#X connect 6 0 28 0;
#X connect 7 0 4 1;
#X connect 8 0 10 0;
#X connect 9 0 25 0;
#X connect 10 0 9 0;
#X connect 10 1 15 1;
#X connect 11 0 1 0;
#X connect 12 0 8 0;
#X connect 12 1 16 0;
#X connect 13 0 14 0;
#X connect 13 0 15 0;
#X connect 14 0 13 1;
#X connect 15 0 12 0;
#X connect 16 0 13 1;
#X connect 17 0 18 0;
#X connect 17 0 11 1;
#X connect 18 0 17 1;
#X connect 19 0 6 0;
#X connect 21 0 22 0;
#X connect 22 0 26 0;
#X connect 23 0 29 0;
#X connect 23 1 7 0;
#X connect 23 2 17 1;
#X connect 23 3 12 0;
#X connect 23 5 24 0;
#X connect 24 0 19 1;
#X connect 25 0 21 0;
#X connect 25 1 26 1;
#X connect 26 0 19 1;
#X connect 27 0 11 0;
#X connect 27 1 23 0;
#X connect 28 0 17 0;
#X connect 29 0 34 0;
#X connect 31 0 19 0;
#X connect 32 0 31 0;
#X connect 32 1 33 0;
#X connect 32 2 13 0;
#X connect 33 0 31 1;
#X connect 34 0 3 0;
#X restore 18 139 pd \$1/picksequence;
#X obj 18 213 filltable \$1/sequence;
#N canvas 557 250 450 300 \$1/pickrootnote 0;
#X obj 5 7 inlet;
#X obj 6 50 seededrandom 12;
#X obj 6 71 outlet;
#X connect 0 0 1 0;
#X connect 1 0 2 0;
#X restore 300 139 pd \$1/pickrootnote;
#X obj 178 219 filltable \$1/notes;
#X obj 189 74 r \$1/picknotes;
#X obj 308 74 r \$1/pickrootnote;
#X obj 43 76 r \$1/picksequence;
#X obj 255 7 r \$1/newarrangement;
#X obj 178 164 s \$1/goodnotes;
#X obj 178 196 r \$1/goodnotes;
#X obj 300 160 s \$1/rootnote;
#X obj 18 160 s \$1/newsequence;
#X obj 18 192 r \$1/newsequence;
#X connect 0 0 6 0;
#X connect 3 0 0 0;
#X connect 4 0 1 0;
#X connect 5 0 2 0;
#X connect 6 0 8 0;
#X connect 6 1 7 0;
#X connect 6 2 10 0;
#X connect 7 0 16 0;
#X connect 8 0 19 0;
#X connect 10 0 18 0;
#X connect 12 0 7 0;
#X connect 13 0 10 0;
#X connect 14 0 8 0;
#X connect 15 0 8 0;
#X connect 15 0 7 0;
#X connect 15 0 10 0;
#X connect 17 0 11 0;
#X connect 20 0 9 0;
#X restore 439 1 pd GENERATE;
#X obj 688 635 clip~ -1 1;
#X obj 542 634 clip~ -1 1;
#X obj 531 455 *~ 0.375;
#X obj 529 182 r \$1/cutoff;
#X obj 796 210 r \$1/rez;
#X obj 707 338 r \$1/volume;
#X obj 707 358 / 127;
#X obj 533 371 r \$1/beat-volume;
#X obj 508 351 r \$1/beatshift;
#X obj 508 434 *~ 1;
#X obj 533 412 / 64;
#X obj 641 411 r \$1/delay;
#X obj 779 397 r \$1/feedback;
#X obj 130 403 s \$1/makenew;
#X obj 815 25 r \$1/makenew;
#X obj 623 390 *~ 1;
#X obj 610 7 r \$1/globaloctave;
#N canvas 0 22 450 300 (subpatch) 0;
#X array \$1/notes 4 float 2;
#X coords 0 12 4 0 50 25 1;
#X restore 544 50 graph;
#X obj 762 613 r \$0/notestream;
#X obj 762 634 outlet;
#X msg 298 274 \; acid1/decay 127;
#X obj 909 25 r \$1/pickdecay;
#X obj 465 505 s~ \$0/drumsout;
#X obj 866 483 s~ \$0/acidout;
#X obj 927 639 r~ \$0/acidout;
#X obj 829 634 r~ \$0/drumsout;
#X obj 829 655 outlet~ drums;
#X obj 927 660 outlet~ acid;
#X obj 802 253 s \$1/noteenvelope;
#X obj 531 115 s~ \$1/pitch;
#N canvas 242 278 450 300 tablesave 0;
#X obj 8 9 sssad/auto \$1/slide \$1/slide;
#X obj 8 29 sssad/auto \$1/accent \$1/accent;
#X obj 8 49 sssad/auto \$1/octave \$1/octave;
#X obj 8 69 sssad/auto \$1/sequence \$1/sequence;
#X obj 8 89 sssad/auto \$1/notes \$1/notes;
#X obj 8 109 sssad/auto \$1/rootnote \$1/rootnote;
#X restore 265 116 pd tablesave;
#X obj 910 48 declare -path .;
#X connect 12 0 36 0;
#X connect 14 0 36 0;
#X connect 17 0 49 0;
#X connect 17 1 33 0;
#X connect 17 1 49 1;
#X connect 17 2 56 0;
#X connect 18 0 14 1;
#X connect 19 0 18 0;
#X connect 20 0 95 0;
#X connect 20 1 95 0;
#X connect 21 0 29 0;
#X connect 22 0 81 0;
#X connect 25 0 35 0;
#X connect 25 0 50 0;
#X connect 26 0 76 0;
#X connect 26 1 77 0;
#X connect 27 0 26 2;
#X connect 28 0 21 2;
#X connect 28 1 30 0;
#X connect 29 0 51 0;
#X connect 30 0 29 1;
#X connect 31 0 47 0;
#X connect 32 0 31 0;
#X connect 33 0 36 1;
#X connect 33 0 46 0;
#X connect 33 1 38 0;
#X connect 33 1 114 0;
#X connect 36 0 21 0;
#X connect 37 0 57 1;
#X connect 38 0 39 0;
#X connect 39 0 28 0;
#X connect 46 0 47 0;
#X connect 47 0 21 1;
#X connect 48 0 99 0;
#X connect 49 0 65 0;
#X connect 49 0 115 0;
#X connect 50 0 26 0;
#X connect 50 0 75 0;
#X connect 50 0 86 0;
#X connect 50 0 87 0;
#X connect 51 0 74 0;
#X connect 52 0 54 0;
#X connect 53 0 49 2;
#X connect 53 0 33 1;
#X connect 54 0 53 0;
#X connect 55 0 21 0;
#X connect 56 0 57 0;
#X connect 56 0 58 0;
#X connect 57 0 38 1;
#X connect 58 0 46 1;
#X connect 59 0 22 0;
#X connect 65 0 12 0;
#X connect 65 1 14 0;
#X connect 74 0 101 0;
#X connect 75 0 78 0;
#X connect 76 0 87 0;
#X connect 77 0 86 0;
#X connect 78 0 86 0;
#X connect 78 0 87 0;
#X connect 80 0 81 1;
#X connect 81 0 25 1;
#X connect 84 0 55 0;
#X connect 86 0 82 0;
#X connect 87 0 83 0;
#X connect 88 0 50 0;
#X connect 88 0 108 0;
#X connect 89 0 32 0;
#X connect 90 0 39 1;
#X connect 91 0 92 0;
#X connect 92 0 101 1;
#X connect 93 0 96 0;
#X connect 94 0 20 0;
#X connect 95 0 88 0;
#X connect 96 0 95 1;
#X connect 97 0 59 0;
#X connect 98 0 80 0;
#X connect 100 0 52 0;
#X connect 101 0 25 0;
#X connect 101 0 109 0;
#X connect 102 0 17 0;
#X connect 104 0 105 0;
#X connect 107 0 52 0;
#X connect 110 0 113 0;
#X connect 111 0 112 0;
