#N canvas 579 98 634 623 10;
#X obj 11 589 outlet~;
#X obj 230 123 r \$1/fx-select;
#X obj 11 14 inlet~;
#X obj 12 199 fx fx-passthrough 0 \$1;
#X obj 230 144 s-midirange 8;
#X floatatom 244 191 5 0 0 0 - - -;
#X obj 12 224 fx fx-delay 1 \$1;
#X connect 1 0 4 0;
#X connect 2 0 3 0;
#X connect 3 0 6 0;
#X connect 4 0 3 1;
#X connect 4 0 5 0;
#X connect 4 0 6 1;
#X connect 6 0 0 0;
