#N canvas 385 124 450 300 10;
#X obj 10 6 inlet;
#X obj 10 31 u_listdrip;
#X obj 41 76 f;
#X obj 10 54 t f b;
#X msg 77 51 0;
#X obj 72 76 + 1;
#X obj 10 117 tabwrite \$1;
#X connect 0 0 1 0;
#X connect 1 0 3 0;
#X connect 1 1 4 0;
#X connect 2 0 5 0;
#X connect 2 0 6 1;
#X connect 3 0 6 0;
#X connect 3 1 2 0;
#X connect 4 0 2 1;
#X connect 5 0 2 1;
