#N canvas 20 313 581 375 10;
#X obj 7 7 inlet~;
#X obj 25 32 bonk~;
#X obj 314 329 outlet~;
#X obj 314 213 tabread~ \$0/snippet;
#X obj 314 37 r \$1/notestream;
#X obj 314 83 mtof;
#X obj 152 9 inlet;
#X obj 217 8 inlet;
#X obj 314 234 *~;
#X obj 445 114 *~;
#X obj 445 136 *~;
#X obj 8 268 tabwrite~ \$0/snippet;
#X obj 445 49 r \$1/noteenvelope;
#X obj 445 93 line~;
#X msg 445 72 \$1 1;
#X obj 314 175 phasor~ 0;
#X obj 314 194 *~ 4410;
#X obj 333 147 /;
#X msg 333 126 44100;
#X obj 314 104 t f b f;
#X obj 52 51 unpack f f f;
#X obj 314 59 - 12;
#X obj 86 72 > 100;
#X obj 86 93 sel 1;
#X msg 80 222 \; \$1/snippet const 0;
#X obj 80 203 \$0;
#X obj 86 114 t b b b;
#X obj 8 185 *~;
#X obj 125 182 vline~;
#X obj 125 138 f;
#X msg 125 162 1 0.01 \, 0 0.01 \$1;
#X obj 140 114 + 0.02;
#X obj 217 111 pow;
#X msg 217 91 2;
#X obj 217 69 t b f;
#X floatatom 217 132 8 0 0 0 - - -;
#X obj 428 -4 table \$0/snippet 4410;
#X obj 217 29 s-midirange 16;
#X obj 217 50 - 8;
#X obj 152 30 mtof~;
#X obj 314 287 vcf~ 5;
#X obj 314 308 *~ 5;
#X connect 0 0 1 0;
#X connect 0 0 27 0;
#X connect 1 1 20 0;
#X connect 3 0 8 0;
#X connect 4 0 21 0;
#X connect 5 0 19 0;
#X connect 6 0 39 0;
#X connect 7 0 37 0;
#X connect 8 0 40 0;
#X connect 9 0 10 0;
#X connect 9 0 10 1;
#X connect 10 0 8 1;
#X connect 12 0 14 0;
#X connect 13 0 9 0;
#X connect 13 0 9 1;
#X connect 14 0 13 0;
#X connect 15 0 16 0;
#X connect 16 0 3 0;
#X connect 17 0 16 1;
#X connect 18 0 17 0;
#X connect 19 0 15 0;
#X connect 19 1 18 0;
#X connect 19 2 17 1;
#X connect 20 1 22 0;
#X connect 21 0 5 0;
#X connect 22 0 23 0;
#X connect 23 0 26 0;
#X connect 25 0 24 0;
#X connect 26 0 11 0;
#X connect 26 1 25 0;
#X connect 26 2 29 0;
#X connect 27 0 11 0;
#X connect 28 0 27 1;
#X connect 29 0 30 0;
#X connect 30 0 28 0;
#X connect 31 0 29 1;
#X connect 32 0 35 0;
#X connect 32 0 31 0;
#X connect 33 0 32 0;
#X connect 34 0 33 0;
#X connect 34 1 32 1;
#X connect 37 0 38 0;
#X connect 38 0 34 0;
#X connect 39 0 40 1;
#X connect 40 0 41 0;
#X connect 41 0 2 0;
