#N canvas 48 113 450 494 10;
#X obj 9 13 inlet~;
#X obj 9 454 outlet~;
#X obj 150 13 inlet;
#X obj 318 11 inlet;
#X obj 108 331 samphold~;
#X obj 166 307 phasor~;
#X obj 16 272 noise~;
#X obj 18 296 *~ 0.001;
#X obj 166 282 mtof;
#X obj 33 184 -~;
#X obj 54 146 wrap~;
#X obj 114 114 * 100;
#X obj 114 93 / 127;
#X obj 33 116 *~ 32;
#X obj 33 210 /~ 32;
#X msg 218 43 127;
#X obj 218 19 loadbang;
#X connect 0 0 13 0;
#X connect 2 0 12 0;
#X connect 3 0 8 0;
#X connect 4 0 1 0;
#X connect 5 0 4 1;
#X connect 6 0 7 0;
#X connect 7 0 4 0;
#X connect 8 0 5 0;
#X connect 9 0 14 0;
#X connect 10 0 9 1;
#X connect 11 0 13 1;
#X connect 11 0 14 1;
#X connect 12 0 11 0;
#X connect 13 0 9 0;
#X connect 13 0 10 0;
#X connect 14 0 4 0;
#X connect 15 0 8 0;
#X connect 15 0 12 0;
#X connect 16 0 15 0;
