#N canvas 54 83 806 300 10;
#X declare -path ./rj/;
#X declare -path ./s-abstractions/trunk/;
#X obj 564 67 inlet;
#X obj 698 69 inlet;
#X obj 24 9 inlet~;
#X obj 25 258 outlet~;
#X obj 565 35 declare -path ./rj/;
#X obj 564 15 declare -path ./s-abstractions/trunk/;
#X obj 64 114 mtof;
#X floatatom 127 83 5 0 0 2 Q - -;
#X floatatom 64 82 5 0 0 2 freq - -;
#X obj 63 183 biquad~;
#X obj 564 91 s \$0/freq;
#X obj 64 152 u_highpassq;
#X obj 51 48 r \$0/freq;
#X obj 698 91 / 12;
#X obj 698 112 s \$0/rez;
#X obj 140 36 r \$0/rez;
#X obj 140 58 + 1;
#X connect 0 0 10 0;
#X connect 1 0 13 0;
#X connect 2 0 9 0;
#X connect 6 0 11 0;
#X connect 7 0 11 1;
#X connect 8 0 6 0;
#X connect 9 0 3 0;
#X connect 11 0 9 0;
#X connect 12 0 8 0;
#X connect 13 0 14 0;
#X connect 15 0 16 0;
#X connect 16 0 7 0;
