#N canvas 87 268 581 413 10;
#X obj 7 1 inlet~;
#X obj 17 45 bonk~;
#X obj 314 339 outlet~;
#X obj 222 9 inlet;
#X obj 336 1 inlet;
#X obj 8 328 tabwrite~ \$0/snippet;
#X obj 32 121 unpack f f f;
#X obj 66 142 > 100;
#X obj 66 163 sel 1;
#X msg 60 292 \; \$1/snippet const 0;
#X obj 60 273 \$0;
#X obj 66 184 t b b b;
#X obj 8 185 *~;
#X obj 105 252 vline~;
#X obj 105 208 f;
#X msg 105 232 1 0.01 \, 0 0.01 \$1;
#X obj 120 184 + 0.02;
#X obj 222 120 pow;
#X msg 222 100 2;
#X obj 222 78 t b f;
#X floatatom 222 141 8 0 0 0 - - -;
#X obj 428 -4 table \$0/snippet 4410;
#X obj 222 38 s-midirange 16;
#X obj 222 59 - 8;
#X obj 33 85 list;
#X msg 76 40 bang;
#X obj 78 59 delay 5;
#X obj 314 273 tabplay~ \$0/snippet;
#X obj 21 22 s~ \$0/raw;
#X obj 386 83 s-blockout;
#X obj 424 19 r \$1/tick;
#X obj 443 60 timer;
#X obj 314 318 *~;
#X obj 336 22 t f f;
#X obj 353 125 spigot;
#X obj 386 104 == 0;
#X obj 314 252 metro;
#X obj 424 40 t b b b;
#X obj 347 316 *~;
#X obj 347 295 r~ \$0/raw;
#X obj 383 217 / 1;
#X obj 385 191 f;
#X obj 385 166 t b f;
#X obj 471 158 s-midirange 4;
#X floatatom 471 200 5 0 0 0 - - -;
#X obj 471 179 expr 4 - $f1;
#X connect 0 0 1 0;
#X connect 0 0 12 0;
#X connect 0 0 28 0;
#X connect 1 1 24 1;
#X connect 1 1 25 0;
#X connect 3 0 22 0;
#X connect 4 0 33 0;
#X connect 6 1 7 0;
#X connect 7 0 8 0;
#X connect 8 0 11 0;
#X connect 10 0 9 0;
#X connect 11 0 5 0;
#X connect 11 1 10 0;
#X connect 11 2 14 0;
#X connect 12 0 5 0;
#X connect 13 0 12 1;
#X connect 14 0 15 0;
#X connect 15 0 13 0;
#X connect 16 0 14 1;
#X connect 17 0 20 0;
#X connect 17 0 16 0;
#X connect 18 0 17 0;
#X connect 19 0 18 0;
#X connect 19 1 17 1;
#X connect 22 0 23 0;
#X connect 23 0 19 0;
#X connect 24 0 6 0;
#X connect 25 0 26 0;
#X connect 26 0 24 0;
#X connect 27 0 32 0;
#X connect 29 0 35 0;
#X connect 29 0 38 1;
#X connect 30 0 37 0;
#X connect 31 0 29 1;
#X connect 31 0 41 1;
#X connect 32 0 2 0;
#X connect 33 0 34 0;
#X connect 33 1 29 0;
#X connect 34 0 43 0;
#X connect 35 0 34 1;
#X connect 35 0 32 1;
#X connect 36 0 27 0;
#X connect 37 0 36 0;
#X connect 37 1 31 0;
#X connect 37 2 31 1;
#X connect 38 0 2 0;
#X connect 39 0 38 0;
#X connect 40 0 36 1;
#X connect 41 0 40 0;
#X connect 42 0 41 0;
#X connect 42 1 40 1;
#X connect 43 0 45 0;
#X connect 44 0 42 0;
#X connect 45 0 44 0;
