#N canvas 201 344 581 375 10;
#X obj 7 7 inlet~;
#X obj 17 45 bonk~;
#X obj 314 329 outlet~;
#X obj 222 9 inlet;
#X obj 333 38 inlet;
#X obj 8 328 tabwrite~ \$0/snippet;
#X obj 32 121 unpack f f f;
#X obj 66 142 > 100;
#X obj 66 163 sel 1;
#X msg 60 292 \; \$1/snippet const 0;
#X obj 60 273 \$0;
#X obj 66 184 t b b b;
#X obj 8 185 *~;
#X obj 105 252 vline~;
#X obj 105 208 f;
#X msg 105 232 1 0.01 \, 0 0.01 \$1;
#X obj 120 184 + 0.02;
#X obj 222 120 pow;
#X msg 222 100 2;
#X obj 222 78 t b f;
#X floatatom 222 141 8 0 0 0 - - -;
#X obj 428 -4 table \$0/snippet 4410;
#X obj 222 38 s-midirange 16;
#X obj 222 59 - 8;
#X obj 314 287 vcf~ 5;
#X obj 314 308 *~ 5;
#X obj 33 85 list;
#X msg 76 40 bang;
#X obj 78 59 delay 5;
#X obj 314 213 tabplay~ \$0/snippet;
#X obj 314 234 *~ 1;
#X msg 331 261 20000;
#X obj 421 39 r time/tick;
#X obj 360 80 change;
#X obj 333 59 t f f;
#X msg 360 101 1;
#X obj 386 143 f;
#X obj 421 60 t b f;
#X msg 420 98 0;
#X obj 332 162 s-midirange 8;
#X obj 332 183 print;
#X obj 439 165 metro;
#X obj 112 9 inlet~;
#X obj 166 9 inlet~;
#X obj 407 327 outlet~;
#X obj 480 329 outlet~;
#X obj 111 36 s~ \$0/o1;
#X obj 166 36 s~ \$0/o2;
#X connect 0 0 1 0;
#X connect 0 0 12 0;
#X connect 1 1 26 1;
#X connect 1 1 27 0;
#X connect 3 0 22 0;
#X connect 4 0 34 0;
#X connect 6 1 7 0;
#X connect 7 0 8 0;
#X connect 8 0 11 0;
#X connect 10 0 9 0;
#X connect 11 0 5 0;
#X connect 11 1 10 0;
#X connect 11 2 14 0;
#X connect 12 0 5 0;
#X connect 13 0 12 1;
#X connect 14 0 15 0;
#X connect 15 0 13 0;
#X connect 16 0 14 1;
#X connect 17 0 20 0;
#X connect 17 0 16 0;
#X connect 18 0 17 0;
#X connect 19 0 18 0;
#X connect 19 1 17 1;
#X connect 22 0 23 0;
#X connect 23 0 19 0;
#X connect 24 0 25 0;
#X connect 25 0 2 0;
#X connect 26 0 6 0;
#X connect 27 0 28 0;
#X connect 28 0 26 0;
#X connect 29 0 30 0;
#X connect 30 0 24 0;
#X connect 31 0 24 1;
#X connect 32 0 37 0;
#X connect 33 0 35 0;
#X connect 34 0 39 0;
#X connect 34 1 33 0;
#X connect 35 0 36 1;
#X connect 37 0 38 0;
#X connect 38 0 36 1;
#X connect 39 0 40 0;
#X connect 42 0 46 0;
#X connect 43 0 47 0;
