#N canvas 63 69 538 603 10;
#X obj 204 17 inlet;
#X obj 268 19 inlet;
#X obj 24 9 inlet~;
#X obj 23 577 outlet~;
#X obj 105 10 r \$1/tick;
#X obj 105 33 mod 16;
#X obj 105 54 sel 0;
#X obj 23 173 tabwrite~ \$0/table;
#X obj 105 75 t b b;
#X msg 132 98 stop;
#X obj 23 246 s-spooky~ \$1/spook \$0/table;
#X floatatom 204 38 5 0 0 0 - - -;
#X obj 268 40 / 127;
#X obj 268 61 * 2000;
#X obj 268 82 s \$1/spook/location;
#X obj 332 25 table \$0/table 88200;
#X obj 34 33 s~ \$0/raw;
#X obj 112 359 r \$1/tick;
#X obj 112 380 t b b;
#X obj 112 401 timer;
#X obj 55 425 s-blockout;
#X obj 55 337 r \$1/spook/location;
#X obj 88 503 r~ \$0/raw;
#X obj 23 522 *~;
#X obj 88 524 *~;
#X obj 55 466 == 0;
#X obj 55 446 t f f;
#X connect 0 0 11 0;
#X connect 1 0 12 0;
#X connect 2 0 7 0;
#X connect 2 0 16 0;
#X connect 4 0 5 0;
#X connect 5 0 6 0;
#X connect 6 0 8 0;
#X connect 8 0 7 0;
#X connect 8 1 9 0;
#X connect 9 0 7 0;
#X connect 10 0 23 0;
#X connect 12 0 13 0;
#X connect 13 0 14 0;
#X connect 17 0 18 0;
#X connect 18 0 19 0;
#X connect 18 1 19 1;
#X connect 19 0 20 1;
#X connect 20 0 26 0;
#X connect 21 0 20 0;
#X connect 22 0 24 0;
#X connect 23 0 3 0;
#X connect 24 0 3 0;
#X connect 25 0 23 1;
#X connect 26 0 25 0;
#X connect 26 1 24 1;
