#N canvas 176 398 421 219 10;
#X obj 9 9 inlet~;
#X obj 9 199 outlet~;
#N canvas 0 0 450 300 switcheroo 0;
#X obj 312 8 inlet;
#X obj 312 30 switch~;
#X obj 12 8 inlet~;
#X obj 12 100 outlet~;
#X obj 77 9 r \$3/fx-one;
#X obj 156 9 r \$3/fx-two;
#X obj 12 79 \$1 \$3;
#X connect 0 0 1 0;
#X connect 2 0 6 0;
#X connect 4 0 6 1;
#X connect 5 0 6 2;
#X connect 6 0 3 0;
#X restore 98 159 pd switcheroo;
#X obj 242 9 inlet;
#X obj 162 9 loadbang;
#X obj 162 30 \$2;
#X obj 242 29 == \$2;
#X obj 162 51 == 0;
#X obj 9 160 *~ 0;
#X obj 98 138 *~ 0;
#X obj 162 78 f;
#X obj 162 99 t f f;
#X obj 30 140 == 0;
#X connect 0 0 8 0;
#X connect 0 0 9 0;
#X connect 2 0 1 0;
#X connect 3 0 6 0;
#X connect 4 0 5 0;
#X connect 5 0 7 0;
#X connect 6 0 10 0;
#X connect 7 0 10 0;
#X connect 8 0 1 0;
#X connect 9 0 2 0;
#X connect 10 0 11 0;
#X connect 11 0 12 0;
#X connect 11 1 2 1;
#X connect 11 1 9 1;
#X connect 12 0 8 1;
