#N canvas 478 132 774 618 10;
#X obj 12 8 netreceive 5050 1;
#X obj 12 30 route 0;
#X obj 12 74 route axis button;
#X obj 12 52 s-tr-node ergates joystick;
#X floatatom 13 364 5 0 0 0 - - -;
#X floatatom 58 365 5 0 0 0 - - -;
#X obj 12 118 route 0 1 2 3 4 5 6 7 8;
#X floatatom 54 199 5 0 0 0 - - -;
#X floatatom 99 200 5 0 0 0 - - -;
#X obj 100 221 * -1;
#X obj 100 241 + 1;
#X obj 100 262 / 2;
#X obj 100 283 * 127;
#X obj 100 304 s cutoff;
#X obj 54 217 + 1;
#X obj 54 238 * 5;
#X obj 54 259 pow 2;
#X obj 54 280 s rez;
#X obj 13 422 + 1;
#X obj 13 443 * 64;
#X obj 13 464 s delay;
#X obj 127 506 s feedback;
#X obj 13 382 * -1;
#X obj 127 485 * 127;
#X obj 58 383 * -1;
#X obj 58 407 abs;
#X obj 101 427 s distortion;
#X obj 101 406 > 0.1;
#X obj 483 124 route 1 2 3 4 5 6 7 8 9 10;
#X obj 410 257 tgl 15 0 empty empty empty 17 7 0 10 -262144 -1 -1 0
1;
#X obj 410 237 sel 1;
#X obj 410 277 s beat;
#X obj 369 168 sel 1;
#X obj 369 189 s picknotes;
#X obj 476 221 sel 1;
#X obj 476 242 s pickbeat;
#X obj 521 162 sel 1;
#X obj 521 183 s picksamples;
#X obj 624 221 sel 1;
#X obj 624 241 s resetdelay;
#X obj 528 316 sel 1;
#X msg 528 341 \; settime 0 \;;
#X obj 631 313 sel 1;
#X msg 632 339 \; settime 4 \;;
#X obj 646 160 sel 1;
#X obj 646 181 s makenew;
#X connect 0 0 1 0;
#X connect 1 0 3 0;
#X connect 2 0 6 0;
#X connect 2 1 28 0;
#X connect 3 0 2 0;
#X connect 4 0 22 0;
#X connect 5 0 24 0;
#X connect 5 0 27 0;
#X connect 6 0 4 0;
#X connect 6 1 5 0;
#X connect 6 2 7 0;
#X connect 6 3 8 0;
#X connect 7 0 14 0;
#X connect 8 0 9 0;
#X connect 9 0 10 0;
#X connect 10 0 11 0;
#X connect 11 0 12 0;
#X connect 12 0 13 0;
#X connect 14 0 15 0;
#X connect 15 0 16 0;
#X connect 16 0 17 0;
#X connect 18 0 19 0;
#X connect 19 0 20 0;
#X connect 22 0 18 0;
#X connect 23 0 21 0;
#X connect 24 0 25 0;
#X connect 25 0 23 0;
#X connect 27 0 26 0;
#X connect 28 0 32 0;
#X connect 28 1 30 0;
#X connect 28 2 34 0;
#X connect 28 3 36 0;
#X connect 28 4 40 0;
#X connect 28 5 42 0;
#X connect 28 8 38 0;
#X connect 28 9 44 0;
#X connect 29 0 31 0;
#X connect 30 0 29 0;
#X connect 32 0 33 0;
#X connect 34 0 35 0;
#X connect 36 0 37 0;
#X connect 38 0 39 0;
#X connect 40 0 41 0;
#X connect 42 0 43 0;
#X connect 44 0 45 0;
