#N canvas 478 132 774 618 10;
#X obj 12 8 netreceive 5050 1;
#X obj 12 30 route 0;
#X obj 12 74 route axis button;
#X obj 12 52 s-tr-node ergates joystick;
#X floatatom 90 294 5 0 0 0 - - -;
#X floatatom 135 295 5 0 0 0 - - -;
#X obj 12 118 route 0 1 2 3 4 5 6 7 8;
#X floatatom 23 487 5 0 0 0 - - -;
#X floatatom 68 488 5 0 0 0 - - -;
#X obj 69 509 * -1;
#X obj 69 529 + 1;
#X obj 69 550 / 2;
#X obj 69 571 * 127;
#X obj 69 592 s cutoff;
#X obj 23 505 + 1;
#X obj 23 526 * 5;
#X obj 23 547 pow 2;
#X obj 23 568 s rez;
#X obj 90 352 + 1;
#X obj 90 373 * 64;
#X obj 90 394 s delay;
#X obj 204 436 s feedback;
#X obj 90 312 * -1;
#X obj 204 415 * 127;
#X obj 135 313 * -1;
#X obj 135 337 abs;
#X obj 178 357 s distortion;
#X obj 178 336 > 0.1;
#X obj 410 257 tgl 15 0 empty empty empty 17 7 0 10 -262144 -1 -1 1
1;
#X obj 410 237 sel 1;
#X obj 369 168 sel 1;
#X obj 476 221 sel 1;
#X obj 521 162 sel 1;
#X obj 624 221 sel 1;
#X obj 624 241 s resetdelay;
#X obj 528 316 sel 1;
#X msg 528 341 \; settime 0 \;;
#X obj 631 313 sel 1;
#X msg 632 339 \; settime 4 \;;
#X obj 646 160 sel 1;
#X obj 646 181 s makenew;
#X msg 521 187 \; picksamples bang \; resetdelay bang \;;
#X msg 476 244 \; pickbeat bang \; resetdelay bang \;;
#X msg 274 225 \; picknotes bang \; resetdelay bang \;;
#X msg 363 319 \; beat \$1 \; resetdelay bang \;;
#X obj 483 124 route 1 2 3 4 5 6 7 8 9 10 11 12;
#X msg 712 155 \; resetdelay;
#X connect 0 0 1 0;
#X connect 1 0 3 0;
#X connect 2 0 6 0;
#X connect 2 1 45 0;
#X connect 3 0 2 0;
#X connect 4 0 22 0;
#X connect 5 0 24 0;
#X connect 5 0 27 0;
#X connect 6 0 7 0;
#X connect 6 1 8 0;
#X connect 6 2 4 0;
#X connect 6 3 5 0;
#X connect 7 0 14 0;
#X connect 8 0 9 0;
#X connect 9 0 10 0;
#X connect 10 0 11 0;
#X connect 11 0 12 0;
#X connect 12 0 13 0;
#X connect 14 0 15 0;
#X connect 15 0 16 0;
#X connect 16 0 17 0;
#X connect 18 0 19 0;
#X connect 19 0 20 0;
#X connect 22 0 18 0;
#X connect 23 0 21 0;
#X connect 24 0 25 0;
#X connect 25 0 23 0;
#X connect 27 0 26 0;
#X connect 28 0 44 0;
#X connect 29 0 28 0;
#X connect 30 0 43 0;
#X connect 31 0 42 0;
#X connect 32 0 41 0;
#X connect 33 0 34 0;
#X connect 35 0 36 0;
#X connect 37 0 38 0;
#X connect 39 0 40 0;
#X connect 45 0 30 0;
#X connect 45 1 29 0;
#X connect 45 2 31 0;
#X connect 45 3 32 0;
#X connect 45 4 35 0;
#X connect 45 5 37 0;
#X connect 45 8 33 0;
#X connect 45 9 39 0;
#X connect 45 10 46 0;
#X connect 45 11 46 0;
