#N canvas 555 87 593 209 10;
#X obj 186 141 list prepend send;
#X obj 186 161 list trim;
#X obj 186 119 spigot;
#X obj 9 94 route ip;
#X obj 9 114 list prepend connect;
#X obj 9 154 list trim;
#X text 7 5 listen for the UDP broadcast from the server;
#X obj 186 98 r TO-SERVER;
#X obj 363 181 s FROM-SERVER;
#X obj 363 160 spigot;
#X text 184 78 Data to be sent to the server;
#X text 361 118 Data from the server;
#X obj 9 134 list append 10314;
#X obj 472 159 == 0;
#X obj 9 75 spigot 1;
#X obj 472 180 s \$0/connected;
#X obj 147 24 r \$0/connected;
#X obj 363 138 netreceive 10315;
#X obj 186 181 netsend;
#X obj 9 24 netreceive 10314 1;
#X connect 0 0 1 0;
#X connect 1 0 18 0;
#X connect 2 0 0 0;
#X connect 3 0 4 0;
#X connect 4 0 12 0;
#X connect 5 0 18 0;
#X connect 7 0 2 0;
#X connect 9 0 8 0;
#X connect 12 0 5 0;
#X connect 13 0 15 0;
#X connect 14 0 3 0;
#X connect 16 0 14 1;
#X connect 17 0 9 0;
#X connect 17 1 9 1;
#X connect 17 1 13 0;
#X connect 18 0 2 1;
#X connect 19 0 14 0;
