#N canvas 429 217 450 300 10;
#X obj 6 6 hsl 128 15 0 127 0 0 \$0/value \$1-GAL_midi/value empty
-2 -8 0 10 -260097 -1 -1 0 1;
#X obj 140 6 tgl 15 0 \$0/learn \$1-GAL_midi/learn learn 17 7 0 10
-191407 -1 -1 0 1;
#X obj 140 31 ctlin;
#X obj 14 171 r \$0/value;
#X obj 14 266 s ctlin;
#X obj 14 245 pack f \$1 1;
#X obj 139 194 spigot;
#X obj 153 135 ==;
#X obj 181 135 ==;
#X obj 153 164 &&;
#X obj 332 21 r \$0/learn;
#X obj 253 63 spigot;
#X obj 299 63 spigot;
#X obj 253 84 t b f;
#X obj 238 140 pack f f;
#X obj 217 162 list;
#X msg 316 121 0;
#X obj 217 184 list prepend \$1/GAL_midictl;
#X obj 15 58 route \$1/GAL_midictl;
#X obj 15 79 unpack f f;
#X obj 139 230 s \$1-GAL_midi/value;
#X obj 316 141 s \$1-GAL_midi/learn;
#X obj 15 38 r GAL_MIDILOAD;
#X obj 217 113 r GAL_MIDISAVE;
#X obj 217 206 s GAL_MIDIDATA;
#X connect 2 0 6 0;
#X connect 2 1 7 0;
#X connect 2 1 11 0;
#X connect 2 2 8 0;
#X connect 2 2 12 0;
#X connect 3 0 5 0;
#X connect 5 0 4 0;
#X connect 6 0 20 0;
#X connect 7 0 9 0;
#X connect 8 0 9 1;
#X connect 9 0 6 1;
#X connect 10 0 12 1;
#X connect 10 0 11 1;
#X connect 11 0 13 0;
#X connect 12 0 8 1;
#X connect 12 0 14 1;
#X connect 13 0 16 0;
#X connect 13 1 7 1;
#X connect 13 1 14 0;
#X connect 14 0 15 1;
#X connect 15 0 17 0;
#X connect 16 0 21 0;
#X connect 17 0 24 0;
#X connect 18 0 19 0;
#X connect 19 0 7 1;
#X connect 19 0 14 0;
#X connect 19 1 8 1;
#X connect 19 1 14 1;
#X connect 22 0 18 0;
#X connect 23 0 15 0;
#X coords 0 -1 1 1 190 25 2 0 0;
