#N canvas 606 299 452 313 10;
#X obj 4 218 spigot;
#X obj 4 278 outlet;
#X obj 119 6 loadbang;
#X obj 119 51 == 0;
#X obj 34 74 spigot;
#X obj 4 165 spigot;
#X obj 71 52 != 0;
#X obj 66 255 spigot;
#X obj 124 159 loadbang;
#X msg 124 223 1;
#X msg 182 223 0;
#X obj 254 5 inlet;
#X obj 254 26 route set;
#X obj 254 49 unpack f f;
#X obj 34 108 == \$3;
#X obj 119 28 \$3;
#X text 127 99 s-midictl [ctrl-num] [send-name] [channel];
#X obj 66 279 s \$2;
#X obj 124 201 select \$2;
#X obj 124 180 symbol \$2;
#X obj 41 195 == \$1;
#X obj 4 7 r ctlin;
#X obj 4 27 unpack f f f;
#X obj 311 70 t f f;
#X connect 0 0 1 0;
#X connect 0 0 7 0;
#X connect 2 0 15 0;
#X connect 3 0 5 1;
#X connect 4 0 14 0;
#X connect 5 0 0 0;
#X connect 6 0 4 1;
#X connect 7 0 17 0;
#X connect 8 0 19 0;
#X connect 9 0 7 1;
#X connect 10 0 7 1;
#X connect 11 0 12 0;
#X connect 12 0 13 0;
#X connect 13 0 20 1;
#X connect 13 1 23 0;
#X connect 14 0 5 1;
#X connect 15 0 3 0;
#X connect 15 0 6 0;
#X connect 18 0 9 0;
#X connect 18 1 10 0;
#X connect 19 0 18 0;
#X connect 20 0 0 1;
#X connect 21 0 22 0;
#X connect 22 0 5 0;
#X connect 22 1 20 0;
#X connect 22 2 4 0;
#X connect 23 0 15 0;
#X connect 23 1 14 1;
#X coords 0 0 1 1 150 25 0;
