#N canvas 412 149 450 300 10;
#X obj 3 273 s button/\$1;
#X obj 33 5 tgl 15 0 \$0/learn \$1-GAL_midi/learn learn 17 7 0 10 -191407
-1 -1 0 1;
#X obj 6 5 tgl 15 0 \$0/value \$1-GAL_midi/value empty 17 7 0 10 -258113
-1 -1 0 127;
#X obj 3 245 r \$0/value;
#X obj 140 17 ctlin;
#X obj 139 220 spigot;
#X obj 153 161 ==;
#X obj 181 161 ==;
#X obj 153 190 &&;
#X obj 332 47 r \$0/learn;
#X obj 253 89 spigot;
#X obj 299 89 spigot;
#X obj 253 110 t b f;
#X obj 238 166 pack f f;
#X obj 217 188 list;
#X msg 316 147 0;
#X obj 15 105 unpack f f;
#X obj 316 167 s \$1-GAL_midi/learn;
#X obj 15 64 r GAL_MIDILOAD;
#X obj 217 139 r GAL_MIDISAVE;
#X obj 217 232 s GAL_MIDIDATA;
#X obj 179 17 notein;
#X obj 139 256 s \$1-GAL_midi/value;
#X obj 217 210 list prepend \$1/GAL_midibtn;
#X obj 15 84 route \$1/GAL_midibtn;
#X obj 232 18 r MIDIBUTTON/\$1;
#X connect 3 0 0 0;
#X connect 4 0 5 0;
#X connect 4 1 6 0;
#X connect 4 1 10 0;
#X connect 4 2 7 0;
#X connect 4 2 11 0;
#X connect 5 0 22 0;
#X connect 6 0 8 0;
#X connect 7 0 8 1;
#X connect 8 0 5 1;
#X connect 9 0 11 1;
#X connect 9 0 10 1;
#X connect 10 0 12 0;
#X connect 11 0 7 1;
#X connect 11 0 13 1;
#X connect 12 0 15 0;
#X connect 12 1 6 1;
#X connect 12 1 13 0;
#X connect 13 0 14 1;
#X connect 14 0 23 0;
#X connect 15 0 17 0;
#X connect 16 0 6 1;
#X connect 16 0 13 0;
#X connect 16 1 7 1;
#X connect 16 1 13 1;
#X connect 18 0 24 0;
#X connect 19 0 14 0;
#X connect 21 0 5 0;
#X connect 21 1 10 0;
#X connect 21 1 6 0;
#X connect 21 2 11 0;
#X connect 21 2 7 0;
#X connect 23 0 20 0;
#X connect 24 0 16 0;
#X connect 25 0 22 0;
#X coords 0 -1 1 1 85 25 2 0 0;
