#N canvas 512 180 450 354 10;
#X obj 11 292 outlet~;
#X obj 11 51 seededrandom;
#X obj 11 119 + 1;
#X msg 11 165 set \$2-\$1;
#X obj 184 79 loadbang;
#X obj 11 142 pack f s;
#X obj 314 11 samplerate~ 44100;
#X obj 11 269 tabread4~;
#X obj 30 236 vline~;
#X msg 30 215 0 \, 44100 1000;
#X obj 11 7 r \$2/choose-new-samples;
#X obj 184 99 symbol \$1;
#X obj 80 28 r \$2/\$1-samples;
#X obj 30 193 r \$2/\$1-shot;
#X obj 21 96 sssad/sssad \$2/\$1/sample;
#X obj 11 73 t f f;
#X connect 1 0 15 0;
#X connect 2 0 5 0;
#X connect 3 0 7 0;
#X connect 4 0 11 0;
#X connect 5 0 3 0;
#X connect 7 0 0 0;
#X connect 8 0 7 0;
#X connect 9 0 8 0;
#X connect 10 0 1 0;
#X connect 11 0 5 1;
#X connect 12 0 1 1;
#X connect 13 0 9 0;
#X connect 14 0 2 0;
#X connect 15 0 2 0;
#X connect 15 1 14 1;
