#N canvas 70 253 1045 477 10;
#X obj 10 7 inlet;
#X obj 13 439 rj_image images/GarageAcidLabPosition.png;
#X msg 13 327 move \$1 \$2;
#X obj 13 286 \$1;
#X obj 13 307 pack f f;
#X obj 11 168 t f f;
#X obj 36 74 loadbang;
#X obj 37 99 \$1;
#X obj 37 120 t f f;
#X obj 73 145 + 20;
#X obj 37 145 - 20;
#X obj 12 195 >;
#X obj 44 195 <;
#X obj 12 225 &&;
#X obj 12 266 sel 1;
#X obj 117 173 &&;
#X obj 12 247 &&;
#X obj 21 415 showimage images/GarageAcidLabPosition.png \$1 100 1
;
#X obj 412 332 f;
#X obj 412 455 outlet;
#X obj 10 29 unpack f f;
#X obj 412 352 - 30;
#X obj 117 87 t f f f f;
#X obj 412 372 * -1;
#X obj 412 435 * 127;
#X obj 523 12 inlet;
#X obj 523 33 t f f;
#X obj 461 123 t b f;
#X obj 412 393 + 135;
#X obj 412 414 / 135;
#X obj 117 146 > 35;
#X obj 154 146 < 170;
#X obj 461 81 * -135;
#X obj 461 102 + 170;
#X connect 0 0 20 0;
#X connect 2 0 1 0;
#X connect 3 0 4 0;
#X connect 4 0 2 0;
#X connect 5 0 11 0;
#X connect 5 1 12 0;
#X connect 6 0 7 0;
#X connect 7 0 8 0;
#X connect 8 0 10 0;
#X connect 8 1 9 0;
#X connect 9 0 12 1;
#X connect 10 0 11 1;
#X connect 11 0 13 0;
#X connect 12 0 13 1;
#X connect 13 0 16 0;
#X connect 14 0 3 0;
#X connect 14 0 18 0;
#X connect 15 0 16 1;
#X connect 16 0 14 0;
#X connect 17 0 1 0;
#X connect 18 0 21 0;
#X connect 20 0 5 0;
#X connect 20 1 22 0;
#X connect 21 0 23 0;
#X connect 22 0 30 0;
#X connect 22 1 31 0;
#X connect 22 2 4 1;
#X connect 22 3 18 1;
#X connect 23 0 28 0;
#X connect 24 0 19 0;
#X connect 25 0 26 0;
#X connect 26 0 32 0;
#X connect 26 1 24 0;
#X connect 27 0 3 0;
#X connect 27 1 4 1;
#X connect 28 0 29 0;
#X connect 29 0 24 0;
#X connect 30 0 15 0;
#X connect 31 0 15 1;
#X connect 32 0 33 0;
#X connect 33 0 27 0;
