#N canvas 400 180 450 300 10;
#X obj 107 127 *~;
#X obj 219 127 *~;
#X obj 318 69 r \$1/surround;
#X msg 268 62 bang;
#X obj 125 77 random-stereo-phase;
#X obj 268 41 r \$1/stereophase;
#X obj 120 31 inlet~;
#X obj 104 191 outlet~;
#X obj 222 181 outlet~;
#X obj 318 90 / 127;
#X connect 0 0 7 0;
#X connect 1 0 8 0;
#X connect 2 0 9 0;
#X connect 3 0 4 1;
#X connect 4 0 0 0;
#X connect 4 1 1 0;
#X connect 5 0 3 0;
#X connect 6 0 4 0;
#X connect 6 0 7 0;
#X connect 6 0 8 0;
#X connect 9 0 1 1;
#X connect 9 0 0 1;
