#N canvas 839 250 400 446 10;
#X obj 170 16 r SSSAD_SAVE;
#X obj 170 272 list;
#X obj 262 16 inlet length;
#X obj 187 69 \$2;
#X obj 187 90 until;
#X obj 187 111 f;
#X obj 217 111 + 1;
#X msg 228 90 0;
#X obj 187 132 tabread \$1;
#X msg 170 184 bang;
#X obj 276 215 t l;
#X obj 170 37 t b b b b;
#X text 23 -17 does a sssad load/save of a table. args: tablename length
;
#X obj 188 215 list prepend;
#X obj 29 339 s \$3;
#X obj 70 339 outlet;
#X obj 29 315 t a a;
#X obj 29 294 sssad/sssad \$3-tabledata;
#X connect 0 0 11 0;
#X connect 1 0 17 1;
#X connect 2 0 3 1;
#X connect 3 0 4 0;
#X connect 4 0 5 0;
#X connect 5 0 6 0;
#X connect 5 0 8 0;
#X connect 6 0 5 1;
#X connect 7 0 5 1;
#X connect 7 0 13 0;
#X connect 8 0 13 0;
#X connect 9 0 1 0;
#X connect 10 0 13 1;
#X connect 11 0 9 0;
#X connect 11 1 3 0;
#X connect 11 2 7 0;
#X connect 11 3 13 1;
#X connect 13 0 10 0;
#X connect 13 0 1 1;
#X connect 16 0 14 0;
#X connect 16 1 15 0;
#X connect 17 0 16 0;
